<?xml version="1.0" encoding="UTF-8"?>
<svg version="1.1" xmlns="http://www.w3.org/2000/svg" width="960" height="300">
<path d="M0 0 C316.8 0 633.6 0 960 0 C960 99 960 198 960 300 C643.2 300 326.4 300 0 300 C0 201 0 102 0 0 Z " fill="#FEFEFE" transform="translate(0,0)"/>
<path d="M0 0 C1.32 0 2.64 0 4 0 C4 47.52 4 95.04 4 144 C-39.56 144 -83.12 144 -128 144 C-128 101.1 -128 58.2 -128 14 C-85.76 14 -43.52 14 0 14 C0 9.38 0 4.76 0 0 Z " fill="#FCED1A" transform="translate(956,0)"/>
<path d="M0 0 C15.67872967 11.19107896 23.54303331 30.25935199 27.25 48.5625 C30.97263817 73.98375884 25.97826376 99.60109596 11.0546875 120.7578125 C9.11089056 123.25044622 7.10156742 125.63927976 5 128 C4.36191406 128.72058594 3.72382813 129.44117188 3.06640625 130.18359375 C-5.81744543 139.63944393 -17.3761744 145.42212595 -30.3828125 146.203125 C-46.34492676 146.40306798 -58.9928977 142.46612185 -70.69140625 131.296875 C-71.45324219 130.53890625 -72.21507813 129.7809375 -73 129 C-73.62777344 128.40703125 -74.25554687 127.8140625 -74.90234375 127.203125 C-90.61411721 111.09944789 -93.46052576 87.04843721 -93.21484375 65.6953125 C-92.56374338 41.53584892 -82.72497299 19.84366077 -65.3671875 3.0703125 C-46.96229254 -13.02637781 -19.97133706 -13.05699471 0 0 Z " fill="#679CD2" transform="translate(195,95)"/>
<path d="M0 0 C15.67872967 11.19107896 23.54303331 30.25935199 27.25 48.5625 C30.97263817 73.98375884 25.97826376 99.60109596 11.0546875 120.7578125 C9.11089056 123.25044622 7.10156742 125.63927976 5 128 C4.36191406 128.72058594 3.72382812 129.44117188 3.06640625 130.18359375 C-5.81744543 139.63944393 -17.3761744 145.42212595 -30.3828125 146.203125 C-46.34492676 146.40306798 -58.9928977 142.46612185 -70.69140625 131.296875 C-71.45324219 130.53890625 -72.21507812 129.7809375 -73 129 C-73.62777344 128.40703125 -74.25554688 127.8140625 -74.90234375 127.203125 C-90.61411721 111.09944789 -93.46052576 87.04843721 -93.21484375 65.6953125 C-92.56374338 41.53584892 -82.72497299 19.84366077 -65.3671875 3.0703125 C-46.96229254 -13.02637781 -19.97133706 -13.05699471 0 0 Z " fill="#679CD2" transform="translate(800,95)"/>
<path d="M0 0 C6.60931041 5.95407705 10.60567976 14.6964599 11.30078125 23.5390625 C11.54819515 35.10240694 9.61216475 44.5878663 1.96875 53.54296875 C-5.09148033 60.82021436 -13.14505959 64.1969796 -22.9375 66.5078125 C-22.15246094 66.79914063 -21.36742187 67.09046875 -20.55859375 67.390625 C-9.79887447 71.58889584 -4.20979819 75.44011666 0.72265625 86.05078125 C3.44328593 93.07048174 4.9610523 100.37866602 6.53759766 107.72021484 C9.10088752 122.89043459 9.10088752 122.89043459 18 134.5078125 C20.11127004 135.1972068 22.23796535 135.84049137 24.375 136.4453125 C25.261875 136.7959375 26.14875 137.1465625 27.0625 137.5078125 C27.9375 139.6328125 27.9375 139.6328125 28.0625 141.5078125 C25.00657901 143.54509316 24.42357262 143.75802856 20.9921875 143.73828125 C20.18555664 143.73699219 19.37892578 143.73570312 18.54785156 143.734375 C17.68643555 143.72148437 16.82501953 143.70859375 15.9375 143.6953125 C14.61443848 143.68564453 14.61443848 143.68564453 13.26464844 143.67578125 C4.84565246 143.57925389 -3.54176412 143.11682961 -11.9375 142.5078125 C-18.74216364 130.54099023 -19.72014078 116.7749178 -21.31054688 103.32421875 C-23.19969117 86.88786417 -23.19969117 86.88786417 -31.9375 73.5078125 C-36.02149519 71.18554073 -39.56366073 70.34599829 -44.17578125 69.93359375 C-45.06950439 69.85149658 -45.96322754 69.76939941 -46.8840332 69.68481445 C-47.56167725 69.62640381 -48.23932129 69.56799316 -48.9375 69.5078125 C-48.84490038 77.19438828 -48.73755248 84.88065837 -48.62011719 92.56689453 C-48.58191582 95.17980316 -48.54704776 97.79276278 -48.515625 100.40576172 C-48.46978267 104.1691303 -48.41181897 107.93215043 -48.3515625 111.6953125 C-48.34001129 112.85708008 -48.32846008 114.01884766 -48.31655884 115.21582031 C-48.22487613 125.47279167 -48.22487613 125.47279167 -44.4375 134.8203125 C-40.61197621 137.40254106 -36.3807535 138.38851963 -31.9375 139.5078125 C-32.2675 140.8278125 -32.5975 142.1478125 -32.9375 143.5078125 C-51.0875 143.5078125 -69.2375 143.5078125 -87.9375 143.5078125 C-88.2675 142.1878125 -88.5975 140.8678125 -88.9375 139.5078125 C-88.03257812 139.23517578 -88.03257812 139.23517578 -87.109375 138.95703125 C-85.91054688 138.57998047 -85.91054688 138.57998047 -84.6875 138.1953125 C-83.89859375 137.95167969 -83.1096875 137.70804688 -82.296875 137.45703125 C-79.71699609 136.41909983 -78.01237598 135.36114181 -75.9375 133.5078125 C-73.44464977 127.08885639 -73.64900117 119.73163969 -73.67871094 112.94018555 C-73.6752063 111.93548218 -73.67170166 110.93077881 -73.66809082 109.89562988 C-73.65935248 106.60352484 -73.66509603 103.31163815 -73.671875 100.01953125 C-73.67052577 97.71084045 -73.66858308 95.40214992 -73.66607666 93.09346008 C-73.6631358 88.26450891 -73.66738843 83.43563196 -73.67675781 78.60668945 C-73.68813237 72.4471655 -73.68159881 66.28781626 -73.66961288 60.12829876 C-73.66234978 55.36250009 -73.6647029 50.59674212 -73.66986847 45.83094215 C-73.67119368 43.56136873 -73.66959725 41.29179149 -73.66490936 39.02222252 C-72.3264882 20.1870926 -72.3264882 20.1870926 -77.85345459 3.24467468 C-80.25469003 1.24346347 -82.17797424 0.54979296 -85.1875 -0.2421875 C-86.07953125 -0.48453125 -86.9715625 -0.726875 -87.890625 -0.9765625 C-88.56609375 -1.14671875 -89.2415625 -1.316875 -89.9375 -1.4921875 C-89.0625 -6.3671875 -89.0625 -6.3671875 -87.9375 -7.4921875 C-85.90811194 -7.63929681 -83.87385091 -7.71984723 -81.83984375 -7.7734375 C-80.57124512 -7.81025635 -79.30264648 -7.8470752 -77.99560547 -7.88500977 C-77.32253357 -7.90250275 -76.64946167 -7.91999573 -75.95599365 -7.9380188 C-72.49250018 -8.02817426 -69.02945321 -8.13250074 -65.56640625 -8.23828125 C-64.89029297 -8.25874008 -64.21417969 -8.27919891 -63.51757812 -8.30027771 C-58.77079585 -8.45000337 -54.04840341 -8.70696346 -49.3125 -9.0546875 C-14.74276869 -11.35430976 -14.74276869 -11.35430976 0 0 Z " fill="#669CD3" transform="translate(676.9375,95.4921875)"/>
<path d="M0 0 C1.19279572 -0.00960754 2.38559143 -0.01921509 3.61453247 -0.02911377 C5.57046829 -0.03548859 5.57046829 -0.03548859 7.56591797 -0.04199219 C8.91860962 -0.04774879 10.27130127 -0.05350646 11.62399292 -0.05926514 C14.47394185 -0.06979868 17.32386245 -0.07562262 20.17382812 -0.07910156 C23.78324154 -0.08452261 27.39226536 -0.10839979 31.0015583 -0.13707352 C33.80558245 -0.15595278 36.60951867 -0.16091918 39.41360092 -0.16243744 C41.37792114 -0.16685065 43.34219383 -0.18539478 45.306427 -0.20440674 C59.52178435 -0.16991665 73.16395451 1.54655793 84.18310547 11.22363281 C92.54246725 20.06900399 93.92297923 32.35028434 93.71044922 43.94628906 C93.21942627 54.69749297 89.06783446 64.52640382 81.46826172 72.12597656 C70.37953698 81.61054582 56.90920281 82.33097807 42.99560547 82.22363281 C41.8825 82.21912109 40.76939453 82.21460938 39.62255859 82.20996094 C36.89268446 82.19824474 34.16292373 82.1818398 31.43310547 82.16113281 C31.50029751 89.56298479 31.59017971 96.96431655 31.69555664 104.36572266 C31.72873282 106.88161019 31.75678731 109.39757084 31.77954102 111.91357422 C31.81322065 115.53807625 31.86554538 119.16191261 31.92138672 122.78613281 C31.92777664 123.90415283 31.93416656 125.02217285 31.94075012 126.17407227 C32.05906099 132.51271775 32.68392314 137.41395806 35.43310547 143.16113281 C38.06762303 145.15335064 40.96957522 145.62452364 44.18310547 146.28613281 C45.38193359 146.5375 45.38193359 146.5375 46.60498047 146.79394531 C47.20826172 146.91511719 47.81154297 147.03628906 48.43310547 147.16113281 C48.43310547 148.81113281 48.43310547 150.46113281 48.43310547 152.16113281 C45.90566459 153.42485325 44.16930238 153.28136077 41.34082031 153.2746582 C39.74939713 153.27454491 39.74939713 153.27454491 38.12582397 153.27442932 C36.40234238 153.26668739 36.40234238 153.26668739 34.64404297 153.25878906 C33.47048248 153.25737411 32.296922 153.25595917 31.08779907 153.25450134 C27.32787561 153.2488897 23.56801102 153.2363352 19.80810547 153.22363281 C17.26383549 153.21861931 14.71956459 153.21405615 12.17529297 153.20996094 C5.92787694 153.19891649 -0.31950459 153.18216699 -6.56689453 153.16113281 C-6.89689453 151.51113281 -7.22689453 149.86113281 -7.56689453 148.16113281 C-6.87982422 147.86980469 -6.19275391 147.57847656 -5.48486328 147.27832031 C0.1630637 144.7456327 0.1630637 144.7456327 4.49560547 140.47363281 C6.7258578 132.59340791 6.58487006 124.28200955 6.59423828 116.14697266 C6.59920319 115.09522354 6.60416809 114.04347443 6.60928345 112.95985413 C6.62377544 109.51391933 6.6306826 106.06803044 6.63623047 102.62207031 C6.64047153 100.84698027 6.64047153 100.84698027 6.64479828 99.03602982 C6.65973245 92.7828067 6.66900039 86.52960635 6.67333984 80.27636719 C6.67883924 73.82934224 6.7029148 67.38252689 6.7313118 60.93556786 C6.74994897 55.96324045 6.7551442 50.99096367 6.75667572 46.01860428 C6.7596965 43.64161651 6.76770555 41.26462952 6.7808609 38.88767624 C6.7979558 35.56378936 6.79603335 32.24041716 6.78955078 28.91650391 C6.79876556 27.94174606 6.80798035 26.96698822 6.81747437 25.96269226 C6.78120825 20.01278687 5.9513916 15.57777713 3.43310547 10.16113281 C1.73446609 8.64495374 1.73446609 8.64495374 -0.56689453 8.16113281 C-1.80439453 7.78988281 -3.04189453 7.41863281 -4.31689453 7.03613281 C-5.38939453 6.74738281 -6.46189453 6.45863281 -7.56689453 6.16113281 C-6.49761533 0.20372015 -6.05142146 0.03920371 0 0 Z " fill="#679CD3" transform="translate(483.56689453125,85.8388671875)"/>
<path d="M0 0 C13.00128941 8.92506548 16.64479837 24.05273224 19.59375 38.73046875 C23.71027584 64.91614699 24.62860698 100.92560425 9.53125 123.80859375 C4.9359606 129.88236757 -0.23152362 135.45441705 -8.05078125 136.59375 C-14.62455887 137.04274707 -19.8174351 135.21476881 -25.09375 131.30859375 C-43.49250625 112.17002737 -42.67097576 81.87602441 -42.27568054 57.13534546 C-41.86580158 39.04784551 -39.32660848 17.78468342 -26.109375 4.28125 C-18.29818913 -2.89858063 -9.69478731 -5.55911415 0 0 Z " fill="#FDFEFE" transform="translate(173.09375,96.69140625)"/>
<path d="M0 0 C13.00128941 8.92506548 16.64479837 24.05273224 19.59375 38.73046875 C23.71027584 64.91614699 24.62860698 100.92560425 9.53125 123.80859375 C4.9359606 129.88236757 -0.23152362 135.45441705 -8.05078125 136.59375 C-14.62455887 137.04274707 -19.8174351 135.21476881 -25.09375 131.30859375 C-43.49250625 112.17002737 -42.67097576 81.87602441 -42.27568054 57.13534546 C-41.86580158 39.04784551 -39.32660848 17.78468342 -26.109375 4.28125 C-18.29818913 -2.89858063 -9.69478731 -5.55911415 0 0 Z " fill="#FDFEFE" transform="translate(778.09375,96.69140625)"/>
<path d="M0 0 C0.66 -1.98 1.32 -3.96 2 -6 C3.32 -6 4.64 -6 6 -6 C7.26475769 2.12674089 8.29177087 10.25642998 9.125 18.4375 C9.25624268 19.69675293 9.25624268 19.69675293 9.39013672 20.98144531 C9.85526983 25.68144231 10.08898682 30.27734226 10 35 C8.35 35.33 6.7 35.66 5 36 C4.57589844 34.94941406 4.15179688 33.89882812 3.71484375 32.81640625 C-1.40101149 20.44817789 -7.29410916 9.74866773 -19.4375 3.125 C-25.18414273 1.31027072 -29.67735786 1.16958274 -35.1875 3.5 C-40.11257106 6.21460609 -42.94735454 10.64762592 -44.61328125 15.953125 C-45.91298172 22.83234769 -45.65500835 29.92370185 -42 36 C-36.0117908 42.61208538 -29.1941861 46.1798414 -21.0625 49.5625 C-12.99679626 52.9609993 -5.99365132 56.71640023 1 62 C1.57129639 62.40597412 2.14259277 62.81194824 2.73120117 63.23022461 C11.15067717 69.57629806 15.51160159 79.78471763 17.58984375 89.859375 C19.58200859 105.1136658 17.82278318 120.0904731 9 133 C2.02395029 141.85133189 -4.75002831 147.83714237 -16 150 C-30.29216949 151.52278571 -42.64575273 146.78804795 -55 140 C-55.17015625 140.71027344 -55.3403125 141.42054688 -55.515625 142.15234375 C-55.75796875 143.07144531 -56.0003125 143.99054688 -56.25 144.9375 C-56.48203125 145.85402344 -56.7140625 146.77054688 -56.953125 147.71484375 C-58 150 -58 150 -60.109375 150.81640625 C-60.73328125 150.87699219 -61.3571875 150.93757812 -62 151 C-63.30747334 147.07757998 -63.46255178 143.1858164 -63.75390625 139.08984375 C-63.81907944 138.20776749 -63.88425262 137.32569122 -63.95140076 136.41688538 C-64.08856123 134.54669814 -64.22376849 132.67636678 -64.35717773 130.8059082 C-64.56000333 127.97237918 -64.77074015 125.13952015 -64.98242188 122.30664062 C-65.11506385 120.48440991 -65.24723967 118.6621452 -65.37890625 116.83984375 C-65.44139053 116.00404282 -65.50387482 115.16824188 -65.56825256 114.30711365 C-65.97341046 108.52990737 -66.06865742 102.79049294 -66 97 C-64.68 97 -63.36 97 -62 97 C-61.65388672 97.87398437 -61.65388672 97.87398437 -61.30078125 98.765625 C-60.60278282 100.52027719 -59.89910823 102.27267651 -59.19140625 104.0234375 C-58.40859805 105.9791747 -57.64491 107.94269444 -56.90234375 109.9140625 C-52.0685184 122.33453576 -45.37780677 133.19051833 -33.625 139.9375 C-27.47868328 141.73900662 -21.70252382 142.0780077 -15.75 139.4375 C-9.37106037 135.75189044 -5.48373348 130.50556718 -3.46875 123.453125 C-1.69967677 114.19497509 -2.96381133 105.95910816 -7.875 97.9375 C-14.70260599 90.62794535 -24.81113161 86.53847372 -33.75 82.4375 C-40.51009047 79.32153114 -46.60340517 76.24274454 -52 71 C-52.94359375 70.09701172 -52.94359375 70.09701172 -53.90625 69.17578125 C-63.63007797 59.01932534 -66.49600039 46.21525684 -66.24609375 32.55859375 C-65.56718108 22.74130107 -62.61215102 15.029693 -57 7 C-56.2575 5.9275 -55.515 4.855 -54.75 3.75 C-38.81373706 -12.18626294 -18.97349404 -7.58939761 0 0 Z " fill="#679CD2" transform="translate(72,91)"/>
<path d="M0 0 C38.94 0 77.88 0 118 0 C119.71679916 5.15039749 119.67569273 10.60762007 120.0625 16 C120.19881836 17.77310547 120.19881836 17.77310547 120.33789062 19.58203125 C120.8624374 26.73637594 121.12351435 33.82701873 121 41 C119.68 41.33 118.36 41.66 117 42 C116.49210937 40.9378125 115.98421875 39.875625 115.4609375 38.78125 C108.45786499 23.21255437 108.45786499 23.21255437 95.4921875 12.96875 C90.89619084 11.69379791 86.36581404 11.28753874 81.625 10.875 C80.69816406 10.78863281 79.77132812 10.70226562 78.81640625 10.61328125 C76.54477299 10.40251115 74.27275273 10.19826819 72 10 C71.97653172 20.72942256 71.95891328 31.45883874 71.94818783 42.18828201 C71.94303273 47.17370783 71.93607445 52.15911574 71.92456055 57.14453125 C68.0877734 101.77835058 68.0877734 101.77835058 77 143 C78.9236238 144.0565123 78.9236238 144.0565123 81.1875 144.625 C82.38246094 144.97884766 82.38246094 144.97884766 83.6015625 145.33984375 C84.39304687 145.55769531 85.18453125 145.77554688 86 146 C86.70898438 146.20753906 87.41796875 146.41507813 88.1484375 146.62890625 C89.76167022 147.09970682 91.38028882 147.55199478 93 148 C92.67 149.32 92.34 150.64 92 152 C70.88 152 49.76 152 28 152 C27.505 150.02 27.505 150.02 27 148 C28.59353242 146.40646758 30.5566523 146.57445972 32.75 146.25 C37.57374094 145.31281605 40.02711137 144.08772186 43 140 C47.52165325 130.27844552 46.14848692 117.98039731 46.1328125 107.48046875 C46.1334893 105.85704026 46.13446241 104.23361187 46.13571167 102.61018372 C46.13718231 99.20015502 46.13506206 95.79015258 46.13037109 92.38012695 C46.12479572 88.1318944 46.12796723 83.88372623 46.13382339 79.63549614 C46.16071609 56.40816138 45.75578101 33.21490656 45 10 C44.0643219 10.07386932 44.0643219 10.07386932 43.10974121 10.14923096 C42.27624146 10.21503357 41.4427417 10.28083618 40.58398438 10.34863281 C39.28013794 10.4523822 39.28013794 10.4523822 37.94995117 10.55822754 C36.15279411 10.69890187 34.35489383 10.83016503 32.55664062 10.95605469 C23.25294176 11.79255487 17.021908 14.96747118 10.94921875 22.078125 C8.11277612 26.32994681 6.22377824 30.90209357 4.43334961 35.67871094 C2.44978731 40.78331415 2.44978731 40.78331415 -0.140625 42.03125 C-2 42 -2 42 -3 41 C-3 27.29679681 -1.31995001 13.63948348 0 0 Z " fill="#689CD1" transform="translate(346,87)"/>
<path d="M0 0 C1.36377274 0.01078583 1.36377274 0.01078583 2.75509644 0.02178955 C4.18930939 0.02135147 4.18930939 0.02135147 5.65249634 0.02090454 C8.82334363 0.02230157 11.993958 0.03788034 15.1647644 0.05352783 C17.35908886 0.05725663 19.55341498 0.06010423 21.7477417 0.06210327 C27.53132704 0.06975018 33.3148124 0.08940775 39.09835815 0.11151123 C44.99678189 0.13194691 50.89522174 0.14110011 56.79367065 0.15118408 C68.37314174 0.17265264 79.95253852 0.20680132 91.5319519 0.24884033 C92.10725877 4.67724964 92.67671207 9.10636214 93.24093628 13.53619385 C93.43336956 15.04062819 93.62735413 16.544865 93.82296753 18.04888916 C94.1051254 20.22049705 94.38155225 22.39277253 94.6569519 24.56524658 C94.82453003 25.86921387 94.99210815 27.17318115 95.1647644 28.5166626 C95.51953398 32.12262173 95.59751873 35.62832193 95.5319519 39.24884033 C94.0469519 39.74384033 94.0469519 39.74384033 92.5319519 40.24884033 C92.05886597 39.35423096 91.58578003 38.45962158 91.09835815 37.53790283 C85.48874302 27.17793226 79.30877682 16.21285968 67.5319519 12.24884033 C66.90417847 12.02712158 66.27640503 11.80540283 65.62960815 11.57696533 C56.24390332 8.91077663 45.00685454 9.56275 35.5319519 11.24884033 C34.39629396 23.00255165 34.20785414 34.76286229 33.9694519 46.56134033 C33.92615929 48.57371719 33.88254199 50.58608709 33.83859253 52.59844971 C33.73263779 57.48184114 33.63106953 62.36530554 33.5319519 67.24884033 C35.74190028 66.99151758 37.94989214 66.71736347 40.1569519 66.43634033 C41.38671753 66.28552002 42.61648315 66.13469971 43.8835144 65.97930908 C48.97500304 64.9599211 52.42946308 63.57876566 55.7663269 59.55352783 C57.73925301 55.8608387 58.82442179 52.4237218 59.7819519 48.37384033 C59.95468628 47.68548096 60.12742065 46.99712158 60.3053894 46.28790283 C60.72466833 44.61078715 61.12980734 42.93014684 61.5319519 41.24884033 C62.8519519 41.24884033 64.1719519 41.24884033 65.5319519 41.24884033 C65.67841448 61.27816071 65.30208655 81.23558079 64.5319519 101.24884033 C63.0469519 101.74384033 63.0469519 101.74384033 61.5319519 102.24884033 C61.18583862 100.63815674 61.18583862 100.63815674 60.83273315 98.99493408 C58.68047927 88.1086815 58.68047927 88.1086815 52.5319519 79.24884033 C47.790303 77.04438953 43.00978511 76.27633774 37.85128784 75.71710205 C37.04205872 75.62887177 36.23282959 75.54064148 35.39907837 75.44973755 C34.78292664 75.38344147 34.1667749 75.31714539 33.5319519 75.24884033 C33.59917719 83.05961026 33.68907231 90.86988851 33.79440308 98.68023682 C33.82917854 101.33489836 33.85562377 103.98926929 33.87838745 106.644104 C33.9120898 110.46967885 33.96441586 114.29462563 34.02023315 118.11993408 C34.02662308 119.29841415 34.033013 120.47689423 34.03959656 121.69108582 C34.15544299 128.24877208 34.58026914 134.2855604 37.5319519 140.24884033 C41.52489085 143.99978298 47.27904033 144.38185493 52.5319519 145.24884033 C52.57467291 146.91495938 52.57259023 148.58266918 52.5319519 150.24884033 C50.81588216 151.96491008 48.55960802 151.37637975 46.21774292 151.37823486 C45.08309097 151.38138702 43.94843903 151.38453918 42.77940369 151.38778687 C40.92634865 151.38475052 40.92634865 151.38475052 39.03585815 151.38165283 C37.77684189 151.38260956 36.51782562 151.38356628 35.22065735 151.384552 C32.55151979 151.38523413 29.88247304 151.38387541 27.21334839 151.37921143 C23.78888311 151.37351991 20.3644963 151.37678957 16.94003391 151.38278389 C13.68030583 151.3872636 10.42058726 151.38412802 7.16085815 151.38165283 C5.92751236 151.38367706 4.69416656 151.38570129 3.42344666 151.38778687 C2.28564255 151.3846347 1.14783844 151.38148254 -0.02444458 151.37823486 C-1.02958603 151.37743927 -2.03472748 151.37664368 -3.07032776 151.37582397 C-5.4680481 151.24884033 -5.4680481 151.24884033 -7.4680481 150.24884033 C-7.1380481 148.59884033 -6.8080481 146.94884033 -6.4680481 145.24884033 C-5.01098083 144.74516276 -3.55234714 144.24601477 -2.0930481 143.74884033 C-0.87488403 143.33118408 -0.87488403 143.33118408 0.3678894 142.90509033 C2.5319519 142.24884033 2.5319519 142.24884033 4.5319519 142.24884033 C6.914046 136.28611422 7.82395054 130.45767711 8.11911011 124.07110596 C8.15861188 123.28687508 8.19811365 122.5026442 8.23881245 121.69464874 C8.65284497 112.78759151 8.69605703 103.88263238 8.69992065 94.96759033 C8.70314859 93.17555721 8.7065137 91.38352433 8.71000671 89.5914917 C8.71593428 85.86707957 8.71785308 82.14269043 8.71725464 78.41827393 C8.71715292 73.69883899 8.73084435 68.97955414 8.74802685 64.26015472 C8.75926021 60.5690445 8.76117047 56.87796942 8.76064491 53.18684387 C8.76180652 51.44891337 8.76612267 49.71098138 8.77397728 47.97306824 C8.81046327 39.07470956 8.6249137 30.22319321 7.83004761 21.35626221 C7.77760737 20.61386543 7.72516714 19.87146866 7.67113781 19.10657501 C7.26495951 15.23780922 6.5937541 13.32426175 4.10438538 10.28631592 C1.39073693 8.13699213 0.11947386 7.58858012 -3.2805481 7.43634033 C-4.07074341 7.38864502 -4.86093872 7.34094971 -5.67507935 7.29180908 C-6.56259888 7.27053955 -6.56259888 7.27053955 -7.4680481 7.24884033 C-8.0930481 4.87384033 -8.0930481 4.87384033 -8.4680481 2.24884033 C-5.76578352 -0.45342425 -3.6701654 0.01219636 0 0 Z " fill="#669CD4" transform="translate(242.46804809570313,87.75115966796875)"/>
<path d="M0 0 C6.60931041 5.95407705 10.60567976 14.6964599 11.30078125 23.5390625 C11.54819515 35.10240694 9.61216475 44.5878663 1.96875 53.54296875 C-5.09148033 60.82021436 -13.14505959 64.1969796 -22.9375 66.5078125 C-22.15246094 66.79914063 -21.36742187 67.09046875 -20.55859375 67.390625 C-9.79887447 71.58889584 -4.20979819 75.44011666 0.72265625 86.05078125 C3.44328593 93.07048174 4.9610523 100.37866602 6.53759766 107.72021484 C9.10088752 122.89043459 9.10088752 122.89043459 18 134.5078125 C20.11127004 135.1972068 22.23796535 135.84049137 24.375 136.4453125 C25.261875 136.7959375 26.14875 137.1465625 27.0625 137.5078125 C27.9375 139.6328125 27.9375 139.6328125 28.0625 141.5078125 C25.00657901 143.54509316 24.42357262 143.75802856 20.9921875 143.73828125 C20.18555664 143.73699219 19.37892578 143.73570312 18.54785156 143.734375 C17.68643555 143.72148437 16.82501953 143.70859375 15.9375 143.6953125 C14.61443848 143.68564453 14.61443848 143.68564453 13.26464844 143.67578125 C4.84565246 143.57925389 -3.54176412 143.11682961 -11.9375 142.5078125 C-18.74216364 130.54099023 -19.72014078 116.7749178 -21.31054688 103.32421875 C-23.19969117 86.88786417 -23.19969117 86.88786417 -31.9375 73.5078125 C-37.8812899 70.1280104 -41.60917624 70.24064488 -48.9375 69.5078125 C-48.6075 89.6378125 -48.2775 109.7678125 -47.9375 130.5078125 C-48.5975 130.5078125 -49.2575 130.5078125 -49.9375 130.5078125 C-49.96072988 122.54491514 -49.97846918 114.58203208 -49.98931217 106.61910915 C-49.99451778 102.92110937 -50.00157301 99.22313287 -50.01293945 95.52514648 C-50.02385117 91.95250789 -50.02979431 88.37989161 -50.03237724 84.80723763 C-50.03421661 83.44817822 -50.03780832 82.08911995 -50.04323006 80.73007011 C-50.0505505 78.81802449 -50.05090899 76.90595612 -50.05102539 74.99389648 C-50.053246 73.90801743 -50.05546661 72.82213837 -50.05775452 71.70335388 C-49.92776446 68.2491085 -49.48090006 64.91945918 -48.9375 61.5078125 C-47.81214844 61.37826172 -47.81214844 61.37826172 -46.6640625 61.24609375 C-38.49809034 60.12507238 -30.60130574 58.44573509 -24.796875 52.20703125 C-18.13646344 42.53824052 -17.48935071 29.85138031 -19.4453125 18.58203125 C-21.04910506 12.50789734 -23.50215848 6.92582112 -28.7578125 3.2265625 C-33.44219263 0.65474596 -37.67627635 0.06162552 -42.9375 -0.4921875 C-43.4325 -1.4821875 -43.4325 -1.4821875 -43.9375 -2.4921875 C-43.2775 -2.4921875 -42.6175 -2.4921875 -41.9375 -2.4921875 C-41.6075 -3.1521875 -41.2775 -3.8121875 -40.9375 -4.4921875 C-39.9475 -5.1521875 -38.9575 -5.8121875 -37.9375 -6.4921875 C-54.28455338 -6.69400297 -70.60384578 -6.07786879 -86.9375 -5.4921875 C-87.2675 -4.5021875 -87.5975 -3.5121875 -87.9375 -2.4921875 C-86.2875 -2.8221875 -84.6375 -3.1521875 -82.9375 -3.4921875 C-82.6075 -2.5021875 -82.2775 -1.5121875 -81.9375 -0.4921875 C-87.6875 -0.3671875 -87.6875 -0.3671875 -89.9375 -1.4921875 C-89.0625 -6.3671875 -89.0625 -6.3671875 -87.9375 -7.4921875 C-85.90811194 -7.63929681 -83.87385091 -7.71984723 -81.83984375 -7.7734375 C-80.57124512 -7.81025635 -79.30264648 -7.8470752 -77.99560547 -7.88500977 C-77.32253357 -7.90250275 -76.64946167 -7.91999573 -75.95599365 -7.9380188 C-72.49250018 -8.02817426 -69.02945321 -8.13250074 -65.56640625 -8.23828125 C-64.89029297 -8.25874008 -64.21417969 -8.27919891 -63.51757812 -8.30027771 C-58.77079585 -8.45000337 -54.04840341 -8.70696346 -49.3125 -9.0546875 C-14.74276869 -11.35430976 -14.74276869 -11.35430976 0 0 Z " fill="#679CD2" transform="translate(676.9375,95.4921875)"/>
<path d="M0 0 C1.6875 1.9375 1.6875 1.9375 1.6875 3.9375 C2.3475 3.9375 3.0075 3.9375 3.6875 3.9375 C5.55737216 7.67724432 4.99391834 12.40540828 4.1875 16.4375 C4.0225 16.9325 3.8575 17.4275 3.6875 17.9375 C3.0275 17.9375 2.3675 17.9375 1.6875 17.9375 C1.605 18.515 1.5225 19.0925 1.4375 19.6875 C0.461518 22.61544601 -0.94761223 23.98994537 -3.3125 25.9375 C-4.3025 25.9375 -5.2925 25.9375 -6.3125 25.9375 C-6.55419922 26.81728516 -6.55419922 26.81728516 -6.80078125 27.71484375 C-9.177769 31.20969138 -12.6373527 32.04701771 -16.5 33.5 C-17.99364288 34.08424366 -19.48713415 34.66887508 -20.98046875 35.25390625 C-21.71185059 35.53508301 -22.44323242 35.81625977 -23.19677734 36.10595703 C-25.14786545 36.87279364 -27.06840769 37.68597963 -28.98828125 38.52734375 C-34.77920821 40.98389444 -40.35814361 42.4143996 -46.5625 43.375 C-53.55667946 44.46568695 -53.55667946 44.46568695 -60.5078125 45.796875 C-74.37112889 48.60537764 -88.21983147 48.23116001 -102.3125 47.9375 C-102.3125 47.2775 -102.3125 46.6175 -102.3125 45.9375 C-101.40072998 45.86233154 -100.48895996 45.78716309 -99.54956055 45.7097168 C-96.11387292 45.42150332 -92.67923471 45.12401989 -89.24487305 44.82055664 C-87.76829661 44.69192829 -86.29140786 44.56682785 -84.81420898 44.44555664 C-76.87152725 43.7910732 -69.25062121 43.00670976 -61.62036133 40.53442383 C-59.10263741 39.88321945 -56.90220845 39.83499131 -54.3125 39.9375 C-54.3125 39.2775 -54.3125 38.6175 -54.3125 37.9375 C-53.50167969 37.65777344 -52.69085937 37.37804687 -51.85546875 37.08984375 C-41.85407634 33.46885069 -32.44039408 29.04855189 -25.3125 20.9375 C-26.7975 20.4425 -26.7975 20.4425 -28.3125 19.9375 C-25.66511084 18.4768715 -24.41801666 17.9375 -21.3125 17.9375 C-20.425594 8.67561834 -20.425594 8.67561834 -22.8125 -0.0625 C-29.192794 -6.95111413 -39.58914221 -9.03405638 -48.53515625 -9.57421875 C-50.73127515 -9.634246 -52.92811534 -9.67203127 -55.125 -9.6875 C-56.16172852 -9.69837646 -57.19845703 -9.70925293 -58.26660156 -9.72045898 C-67.12873885 -9.55741711 -74.47974707 -7.09724561 -82.3125 -3.0625 C-82.38713186 2.73746135 -82.16200949 7.67305092 -78.5 12.375 C-69.28313514 21.10942617 -56.89953118 20.46032568 -45.0625 20.1875 C-43.52736734 20.16738201 -41.9922089 20.1491407 -40.45703125 20.1328125 C-36.74164057 20.08928757 -33.02724224 20.02056097 -29.3125 19.9375 C-29.3125 20.5975 -29.3125 21.2575 -29.3125 21.9375 C-51.42326903 26.22688706 -80.1207981 29.10165559 -100.640625 17.63671875 C-103.80875175 15.45380215 -105.93071521 13.87003951 -106.69140625 10.01953125 C-106.98598581 6.37802651 -107.0554915 3.9294419 -104.80859375 0.9296875 C-95.97616909 -7.05579233 -84.60436519 -11.12792567 -72.875 -12.25 C-72.07715088 -12.32822998 -71.27930176 -12.40645996 -70.45727539 -12.48706055 C-47.67078052 -14.46858883 -18.3745925 -16.38815007 0 0 Z " fill="#FDFDF7" transform="translate(942.3125,62.0625)"/>
<path d="M0 0 C42.17304158 -0.86085451 42.17304158 -0.86085451 55.75 11.0625 C64.10936178 19.90787118 65.48987376 32.18915153 65.27734375 43.78515625 C64.7863208 54.53636016 60.63472899 64.36527101 53.03515625 71.96484375 C41.98766586 81.41414385 28.47099317 82.16980588 14.5625 82.0625 C13.44939453 82.05798828 12.33628906 82.05347656 11.18945312 82.04882812 C8.45957899 82.03711193 5.72981826 82.02070699 3 82 C3 81.67 3 81.34 3 81 C10.26 81 17.52 81 25 81 C25 79.02 25 77.04 25 75 C26.32 75 27.64 75 29 75 C28.11785113 72.11785113 28.11785113 72.11785113 27 70 C24.97536745 69.34786708 24.97536745 69.34786708 23 69 C23.45890625 68.55011719 23.9178125 68.10023438 24.390625 67.63671875 C33.6707713 57.90816201 35.51096994 46.10869716 35.28125 33.09765625 C34.96112118 26.18447443 32.91742673 20.42201271 28.625 15 C22.57422685 10.38988712 17.43244395 9.42597011 10 9 C10.61875 8.4225 11.2375 7.845 11.875 7.25 C14.28110212 4.91947007 14.28110212 4.91947007 16 1 C10.72 1 5.44 1 0 1 C0 0.67 0 0.34 0 0 Z " fill="#679CD2" transform="translate(512,86)"/>
<path d="M0 0 C6.08393185 3.54285188 8.63701334 8.49911812 10.86328125 15.01953125 C13.18866027 25.07232363 12.25471326 35.69611683 8.625 45.3125 C8.35816406 46.03953125 8.09132813 46.7665625 7.81640625 47.515625 C5.01931686 54.02973541 0.10856508 58.49154552 -6.125 61.75 C-11.13727125 62.61750849 -16.28820985 62.3125 -21.375 62.3125 C-21.375 41.8525 -21.375 21.3925 -21.375 0.3125 C-13.82287364 -1.84525039 -7.35686109 -3.38388211 0 0 Z " fill="#FCFEFE" transform="translate(536.375,96.6875)"/>
<path d="M0 0 C6.3711103 2.75837343 9.99173254 7.40347821 12.88671875 13.59765625 C17.04570726 25.22347994 15.77868016 38.22707441 10.8515625 49.3828125 C7.51708998 55.56594034 2.4609909 57.88411853 -3.85546875 60.53515625 C-7.1484375 61.3828125 -7.1484375 61.3828125 -16.1484375 61.3828125 C-16.1484375 41.5828125 -16.1484375 21.7828125 -16.1484375 1.3828125 C-10.42040799 -0.9083993 -5.99115932 -1.72109668 0 0 Z " fill="#FCFEFE" transform="translate(644.1484375,95.6171875)"/>
<path d="M0 0 C42.24 0 84.48 0 128 0 C128 0.33 128 0.66 128 1 C86.09 1 44.18 1 1 1 C1 43.24 1 85.48 1 129 C43.24 129 85.48 129 129 129 C129 128.01 129 127.02 129 126 C129.66 126 130.32 126 131 126 C131 84.42 131 42.84 131 0 C131.33 0 131.66 0 132 0 C132 42.9 132 85.8 132 130 C88.44 130 44.88 130 0 130 C0 87.1 0 44.2 0 0 Z " fill="#F8EC50" transform="translate(828,14)"/>
<path d="M0 0 C5.43436417 5.67064087 4.13175733 14.86856187 4.0534668 22.20458984 C4.04707184 23.1943129 4.04067688 24.18403595 4.03408813 25.20375061 C4.01141721 28.45621733 3.980761 31.70854553 3.94921875 34.9609375 C3.92996645 37.23483113 3.91091132 39.50872643 3.89204407 41.78262329 C3.85114065 46.54197394 3.80593436 51.30126151 3.75805664 56.06054688 C3.69749471 62.14183874 3.65054974 68.22315051 3.60722637 74.30458641 C3.57176345 78.99912434 3.52754059 83.69355032 3.48087502 88.38798904 C3.4599171 90.62931322 3.4419893 92.87066796 3.4272213 95.11204147 C3.40550064 98.25373292 3.37157142 101.39507547 3.3347168 104.53662109 C3.32911995 105.90852852 3.32911995 105.90852852 3.32341003 107.30815125 C3.19920348 115.86704416 1.48437496 123.83705369 -1 132 C-0.34 132.33 0.32 132.66 1 133 C1 133.66 1 134.32 1 135 C10.9 134.67 20.8 134.34 31 134 C31.33 132.35 31.66 130.7 32 129 C33.79206547 129.14084796 35.58364917 129.28783701 37.375 129.4375 C38.87160156 129.55931641 38.87160156 129.55931641 40.3984375 129.68359375 C43 130 43 130 45 131 C45.042721 132.66611905 45.04063832 134.33382885 45 136 C43.28393026 137.71606974 41.02765612 137.12753942 38.68579102 137.12939453 C37.55113907 137.13254669 36.41648712 137.13569885 35.24745178 137.13894653 C33.39439674 137.13591019 33.39439674 137.13591019 31.50390625 137.1328125 C30.24488998 137.13376923 28.98587372 137.13472595 27.68870544 137.13571167 C25.01956789 137.1363938 22.35052114 137.13503508 19.68139648 137.13037109 C16.2569312 137.12467957 12.83254439 137.12794924 9.40808201 137.13394356 C6.14835393 137.13842327 2.88863536 137.13528769 -0.37109375 137.1328125 C-1.60443954 137.13483673 -2.83778534 137.13686096 -4.10850525 137.13894653 C-5.24630936 137.13579437 -6.38411346 137.13264221 -7.55639648 137.12939453 C-8.56153793 137.12859894 -9.56667938 137.12780334 -10.60227966 137.12698364 C-13 137 -13 137 -15 136 C-14.67 134.35 -14.34 132.7 -14 131 C-12.54293274 130.49632243 -11.08429904 129.99717444 -9.625 129.5 C-8.40683594 129.08234375 -8.40683594 129.08234375 -7.1640625 128.65625 C-5 128 -5 128 -3 128 C-0.6184372 122.03860381 0.2930409 116.20964393 0.58935547 109.82446289 C0.62892805 109.04030282 0.66850063 108.25614275 0.70927238 107.44822025 C1.12321132 98.52815064 1.14495096 89.61142802 1.1328125 80.68359375 C1.13348916 78.88916511 1.13446217 77.09473656 1.13571167 75.30030823 C1.13717125 71.5716971 1.13509064 67.84311022 1.13037109 64.11450195 C1.12467072 59.3860427 1.127966 54.6576402 1.13394356 49.92918301 C1.13759308 46.23382658 1.13639071 42.53848316 1.13381577 38.8431263 C1.1331588 37.10158341 1.1339307 35.36003926 1.13629532 33.61849785 C1.14822166 22.37465949 0.7887829 11.21685268 0 0 Z " fill="#6E9BC8" transform="translate(250,102)"/>
<path d="M0 0 C2 1.3125 2 1.3125 4 4 C4.55386882 8.8049918 4.53371415 13.39885754 3 18 C-0.0625 19.1875 -0.0625 19.1875 -3 20 C-2.34 20.33 -1.68 20.66 -1 21 C-2.45154231 24.62885578 -4.2400638 26.15432673 -7.5 28.25 C-8.2940625 28.77078125 -9.088125 29.2915625 -9.90625 29.828125 C-12 31 -12 31 -14 31 C-14 30.01 -14 29.02 -14 28 C-13.34 28 -12.68 28 -12 28 C-12 27.01 -12 26.02 -12 25 C-12.68578125 25.144375 -13.3715625 25.28875 -14.078125 25.4375 C-27.27842069 27.77843914 -40.64407081 27.18052306 -54 27 C-54 26.34 -54 25.68 -54 25 C-56.97 25 -59.94 25 -63 25 C-63 24.34 -63 23.68 -63 23 C-63.66 22.67 -64.32 22.34 -65 22 C-63.88367188 22.144375 -62.76734375 22.28875 -61.6171875 22.4375 C-45.75684062 24.36724993 -29.4346923 25.55851057 -13.65625 22.4375 C-10.73193649 21.95584836 -7.95850788 21.93038805 -5 22 C-5 21.34 -5 20.68 -5 20 C-5.53882813 20.0721875 -6.07765625 20.144375 -6.6328125 20.21875 C-13.43247291 20.9861098 -20.22627318 21.1719635 -27.0625 21.25 C-27.98369629 21.27126953 -28.90489258 21.29253906 -29.85400391 21.31445312 C-36.37253636 21.34693558 -41.87118811 20.20089494 -48 18 C-48 17.67 -48 17.34 -48 17 C-45.36 17 -42.72 17 -40 17 C-40 17.66 -40 18.32 -40 19 C-36.03047101 18.88201056 -32.06119219 18.75778201 -28.09204102 18.62768555 C-26.74085853 18.58428777 -25.38961947 18.5426163 -24.03833008 18.50268555 C-22.09963299 18.44510048 -20.16113724 18.38085702 -18.22265625 18.31640625 C-17.05484619 18.27974854 -15.88703613 18.24309082 -14.68383789 18.20532227 C-12.08220205 18.29923812 -12.08220205 18.29923812 -11 17 C-8.98035801 16.92755947 -6.95832876 16.91622812 -4.9375 16.9375 C-3.28041016 16.95103516 -3.28041016 16.95103516 -1.58984375 16.96484375 C-0.73519531 16.97644531 0.11945313 16.98804687 1 17 C1.74134815 13.34309779 2.40044019 9.68301024 3 6 C2.34 6 1.68 6 1 6 C0.505 3.03 0.505 3.03 0 0 Z " fill="#F3E93A" transform="translate(918,62)"/>
<path d="M0 0 C0.79921875 0.01804687 1.5984375 0.03609375 2.421875 0.0546875 C3.02515625 0.07789063 3.6284375 0.10109375 4.25 0.125 C3.65992779 3.16957426 3.05041357 6.2099487 2.4375 9.25 C2.27185547 10.1059375 2.10621094 10.961875 1.93554688 11.84375 C0.94633266 16.69649896 -0.26215518 20.77661794 -2.75 25.125 C-4.15742022 22.31015955 -3.41652164 20.55563887 -2.8125 17.5 C-2.52052734 15.99566406 -2.52052734 15.99566406 -2.22265625 14.4609375 C-2.06667969 13.69007813 -1.91070313 12.91921875 -1.75 12.125 C-2.19730469 12.52332031 -2.64460937 12.92164063 -3.10546875 13.33203125 C-5.87484641 15.75892724 -8.37534587 17.92138363 -11.625 19.6875 C-14.01384581 20.97789552 -14.01384581 20.97789552 -14.5625 23.8125 C-14.624375 24.575625 -14.68625 25.33875 -14.75 26.125 C-12.44 26.785 -10.13 27.445 -7.75 28.125 C-7.75 28.455 -7.75 28.785 -7.75 29.125 C-9.008125 29.16625 -10.26625 29.2075 -11.5625 29.25 C-12.27019531 29.27320313 -12.97789062 29.29640625 -13.70703125 29.3203125 C-15.75 29.125 -15.75 29.125 -18.75 27.125 C-18.12267081 22.48276398 -18.12267081 22.48276398 -16.1875 20.625 C-14.46343023 19.14624974 -14.46343023 19.14624974 -14.5625 16.4375 C-14.624375 15.674375 -14.68625 14.91125 -14.75 14.125 C-15.41 13.795 -16.07 13.465 -16.75 13.125 C-16.09 13.125 -15.43 13.125 -14.75 13.125 C-14.5025 12.238125 -14.255 11.35125 -14 10.4375 C-12.47039991 6.38405977 -10.66489959 3.30653379 -6.9140625 0.9921875 C-4.44299713 0.00197719 -2.65007902 -0.0779435 0 0 Z " fill="#779ABC" transform="translate(837.75,259.875)"/>
<path d="M0 0 C0 1.65 0 3.3 0 5 C1.0828125 3.7625 1.0828125 3.7625 2.1875 2.5 C5 0 5 0 7.8125 -0.3125 C8.534375 -0.209375 9.25625 -0.10625 10 0 C11.43304064 2.86608129 11.30644155 4.81300783 11 8 C8.69191467 12.27423209 6.14638102 15.4331927 2 18 C-1.3125 18.25 -1.3125 18.25 -4 18 C-4.2475 18.9075 -4.495 19.815 -4.75 20.75 C-6.11881923 24.30893 -6.87249092 25.83480141 -10 28 C-12.99324472 28.61519192 -15.94995705 28.86965628 -19 29 C-16.3359375 26.0234375 -16.3359375 26.0234375 -13.3125 25.8125 C-12.1678125 25.9053125 -12.1678125 25.9053125 -11 26 C-8.24189577 21.13458018 -7.13626352 16.68885926 -6.25 11.25 C-6.11207031 10.48300781 -5.97414063 9.71601563 -5.83203125 8.92578125 C-4.96638253 4.86684022 -4.96638253 4.86684022 -6 1 C-3 0 -3 0 0 0 Z " fill="#759ABF" transform="translate(656,260)"/>
<path d="M0 0 C1.98 0 3.96 0 6 0 C-4.57495681 7.04997121 -15.89571145 9.33002055 -28.2578125 11.23828125 C-31.25195473 11.70288953 -34.21465823 12.23217875 -37.1796875 12.85546875 C-51.0484254 15.66722622 -64.90137625 15.2937841 -79 15 C-79 14.34 -79 13.68 -79 13 C-77.63234497 12.88724731 -77.63234497 12.88724731 -76.23706055 12.7722168 C-72.80137292 12.48400332 -69.36673471 12.18651989 -65.93237305 11.88305664 C-64.45579661 11.75442829 -62.97890786 11.62932785 -61.50170898 11.50805664 C-53.55902725 10.8535732 -45.93812121 10.06920976 -38.30786133 7.59692383 C-35.79013741 6.94571945 -33.58970845 6.89749131 -31 7 C-31 6.34 -31 5.68 -31 5 C-29.3767313 4.3291288 -27.75132422 3.66342971 -26.125 3 C-24.76761719 2.443125 -24.76761719 2.443125 -23.3828125 1.875 C-21 1 -21 1 -19 1 C-19 1.66 -19 2.32 -19 3 C-19.99 3 -20.98 3 -22 3 C-22.33 3.99 -22.66 4.98 -23 6 C-23.66 6.33 -24.32 6.66 -25 7 C-22.525 7.495 -22.525 7.495 -20 8 C-20 7.34 -20 6.68 -20 6 C-19.41992188 5.96261719 -18.83984375 5.92523438 -18.2421875 5.88671875 C-13.10378811 5.4542792 -9.61304271 4.41136323 -5 2 C-2.125 1.8125 -2.125 1.8125 0 2 C0 1.34 0 0.68 0 0 Z " fill="#FDF9C7" transform="translate(919,95)"/>
<path d="M0 0 C0.99 0.33 1.98 0.66 3 1 C6.25947059 7.60400305 6.42487897 14.80803642 6.35644531 22.01757812 C6.35848969 23.06921143 6.36053406 24.12084473 6.36264038 25.2043457 C6.36562527 28.64682962 6.3472472 32.0888238 6.328125 35.53125 C6.32506459 37.93355186 6.32319062 40.33585549 6.32244873 42.73815918 C6.31786087 47.75454576 6.30348719 52.77077045 6.28125 57.78710938 C6.25284663 64.22793111 6.24202457 70.66862626 6.2375679 77.1095047 C6.23342096 82.0610074 6.22361155 87.01248439 6.21169281 91.963974 C6.20598534 94.34032485 6.20122821 96.71667817 6.19742584 99.09303284 C6.1905824 102.40125938 6.17696226 105.70938393 6.16113281 109.01757812 C6.16001495 110.00455688 6.15889709 110.99153564 6.15774536 112.00842285 C6.15203522 112.90544922 6.14632507 113.80247559 6.14044189 114.72668457 C6.1359799 115.89908062 6.1359799 115.89908062 6.13142776 117.09516144 C6 119 6 119 5 121 C4.76641202 123.56081642 4.61836931 126.12005034 4.4765625 128.6875 C4 131 4 131 1 133 C1.14088547 132.20713593 1.28177094 131.41427185 1.42692566 130.59738159 C3.38829609 118.08705097 3.30936854 105.64643394 3.30078125 93.0078125 C3.30467598 90.60700406 3.30901223 88.2061963 3.31376648 85.8053894 C3.32118587 80.80122632 3.32096673 75.79713387 3.31567383 70.79296875 C3.30985646 64.3943694 3.32688577 57.99605739 3.3500185 51.59750557 C3.36476863 46.65087203 3.36562626 41.70430773 3.36250877 36.7576561 C3.3630204 34.39824729 3.36822819 32.03883445 3.37832069 29.67944717 C3.39070524 26.38262523 3.38388312 23.08636424 3.37231445 19.78955078 C3.37995819 18.82624344 3.38760193 17.8629361 3.39547729 16.87043762 C3.34808345 10.73642234 2.3019759 5.68882481 0 0 Z " fill="#719AC4" transform="translate(487,95)"/>
<path d="M0 0 C1.8871875 0.0309375 1.8871875 0.0309375 3.8125 0.0625 C3.50204268 1.9794986 3.18905329 3.89608723 2.875 5.8125 C2.61396484 7.41351563 2.61396484 7.41351563 2.34765625 9.046875 C1.92545829 11.42597593 1.44047116 13.73165211 0.8125 16.0625 C1.8025 16.3925 2.7925 16.7225 3.8125 17.0625 C2.1625 17.3925 0.5125 17.7225 -1.1875 18.0625 C-1.8475 16.4125 -2.5075 14.7625 -3.1875 13.0625 C-3.909375 13.8875 -4.63125 14.7125 -5.375 15.5625 C-8.1875 18.0625 -8.1875 18.0625 -11 18.375 C-11.721875 18.271875 -12.44375 18.16875 -13.1875 18.0625 C-14.62054064 15.19641871 -14.49394155 13.24949217 -14.1875 10.0625 C-10.55470108 3.67378465 -7.62645812 -0.1250239 0 0 Z " fill="#749CC3" transform="translate(735.1875,259.9375)"/>
<path d="M0 0 C1.8125 1.125 1.8125 1.125 3 3 C3.60069534 6.86161288 3.17888362 8.66873403 1.3125 12.125 C-1.00651951 15.00810534 -2.78044864 17.16025637 -6 19 C-9.57195286 18.29961709 -11.42284442 17.57715558 -14 15 C-14.52549734 11.14635287 -14.14588927 9.27556862 -12.3125 5.8125 C-8.84118652 1.59063225 -5.6326312 -0.88936282 0 0 Z " fill="#F5FCFB" transform="translate(641,260)"/>
<path d="M0 0 C0.495 0.99 0.495 0.99 1 2 C-1.0836309 1.85848172 -3.16689938 1.71162064 -5.25 1.5625 C-6.41015625 1.48128906 -7.5703125 1.40007813 -8.765625 1.31640625 C-11.30977376 1.06752213 -13.55953248 0.71885058 -16 0 C-16 0.66 -16 1.32 -16 2 C-14.02 2.33 -12.04 2.66 -10 3 C-10 3.66 -10 4.32 -10 5 C-17.60684806 3.16386426 -17.60684806 3.16386426 -20.51171875 1.953125 C-25.72278011 0.52927397 -30.80950537 0.63134572 -36.1875 0.625 C-37.26064453 0.60050781 -38.33378906 0.57601562 -39.43945312 0.55078125 C-48.61760242 0.51746673 -55.8928736 2.83463455 -64 7 C-64.33 6.01 -64.66 5.02 -65 4 C-67.97 4 -70.94 4 -74 4 C-69.19122402 -0.80877598 -61.09633718 -1.56244904 -54.5625 -2.1875 C-53.76465088 -2.26572998 -52.96680176 -2.34395996 -52.14477539 -2.42456055 C-34.99467662 -3.9159442 -16.7545211 -4.57132115 0 0 Z " fill="#FDFACA" transform="translate(924,52)"/>
<path d="M0 0 C2 4 2 4 2.80859375 6.0390625 C4.33109279 8.54494616 5.40443866 8.82983962 8.1875 9.625 C8.98414063 9.86089844 9.78078125 10.09679687 10.6015625 10.33984375 C11.39304687 10.55769531 12.18453125 10.77554688 13 11 C13.70898438 11.20753906 14.41796875 11.41507813 15.1484375 11.62890625 C16.76167022 12.09970682 18.38028882 12.55199478 20 13 C19.67 14.32 19.34 15.64 19 17 C-2.12 17 -23.24 17 -45 17 C-45.33 15.68 -45.66 14.36 -46 13 C-44.40646758 11.40646758 -42.4433477 11.57445972 -40.25 11.25 C-35.42922194 10.33405217 -33.08514698 8.95284457 -30 5 C-29.34 4.01 -28.68 3.02 -28 2 C-27.67 2.99 -27.34 3.98 -27 5 C-27.33 5.66 -27.66 6.32 -28 7 C-28.66 7 -29.32 7 -30 7 C-30.33 7.99 -30.66 8.98 -31 10 C-32 11 -33 12 -34 13 C-34 13.66 -34 14.32 -34 15 C-33.35200439 14.83701416 -32.70400879 14.67402832 -32.03637695 14.50610352 C-28.15397157 13.85898392 -24.34042704 13.87650543 -20.41796875 13.90234375 C-19.19670036 13.90446617 -19.19670036 13.90446617 -17.95075989 13.90663147 C-15.36296844 13.91220683 -12.77526508 13.92475476 -10.1875 13.9375 C-8.42773563 13.94251819 -6.66796989 13.94708054 -4.90820312 13.95117188 C-0.60543506 13.96216819 3.69726756 13.97941579 8 14 C7.505 12.515 7.505 12.515 7 11 C6.071875 10.7834375 6.071875 10.7834375 5.125 10.5625 C3 10 3 10 1.25 8.3125 C-0.32663401 5.39572708 -0.22275681 3.26709987 0 0 Z " fill="#6E9AC8" transform="translate(419,222)"/>
<path d="M0 0 C0 0.33 0 0.66 0 1 C-3.96 1 -7.92 1 -12 1 C-11.505 2.98 -11.505 2.98 -11 5 C-11.33 5.66 -11.66 6.32 -12 7 C-11.278125 7.226875 -10.55625 7.45375 -9.8125 7.6875 C-4.69927809 10.07367022 -1.30120497 14.51979325 2 19 C2.495 20.485 2.495 20.485 3 22 C3.99 22.99 3.99 22.99 5 24 C4.01 24.66 3.02 25.32 2 26 C1.72027344 25.33613281 1.44054687 24.67226562 1.15234375 23.98828125 C-1.51241377 18.11896002 -3.87345697 13.57541716 -10 11 C-12.91260321 10.31959679 -15.77420067 9.82499692 -18.7421875 9.45703125 C-19.48726562 9.30621094 -20.23234375 9.15539062 -21 9 C-21.495 8.01 -21.495 8.01 -22 7 C-21.34 7 -20.68 7 -20 7 C-19.67 6.34 -19.34 5.68 -19 5 C-18.01 4.34 -17.02 3.68 -16 3 C-32.34705338 2.79818453 -48.66634578 3.41431871 -65 4 C-65.33 4.99 -65.66 5.98 -66 7 C-64.35 6.67 -62.7 6.34 -61 6 C-60.67 6.99 -60.34 7.98 -60 9 C-65.75 9.125 -65.75 9.125 -68 8 C-67.125 3.125 -67.125 3.125 -66 2 C-63.97061194 1.85289069 -61.93635091 1.77234027 -59.90234375 1.71875 C-58.63374512 1.68193115 -57.36514648 1.6451123 -56.05810547 1.60717773 C-55.38503357 1.58968475 -54.71196167 1.57219177 -54.01849365 1.5541687 C-50.55500018 1.46401324 -47.09195321 1.35968676 -43.62890625 1.25390625 C-42.95279297 1.23344742 -42.27667969 1.21298859 -41.58007812 1.19190979 C-36.83329585 1.04218413 -32.11090341 0.78522404 -27.375 0.4375 C-18.25602376 -0.20666609 -9.13583462 -0.08424438 0 0 Z " fill="#709AC5" transform="translate(655,86)"/>
<path d="M0 0 C1 2 1 2 0.77734375 3.9453125 C-0.17880967 6.47263259 -1.27830499 7.2859043 -3.4375 8.875 C-6.78208817 11.5616364 -8.08185456 13.71532126 -9 18 C-9.99 18 -10.98 18 -12 18 C-11.505 18.99 -11.505 18.99 -11 20 C-9.02 20 -7.04 20 -5 20 C-9.56131838 24.56131838 -17.28205959 24.18207008 -23.375 24.3125 C-31.95320071 24.20053553 -39.12398263 22.22328113 -47 19 C-43.457201 17.819067 -40.71640139 17.72971626 -37 18 C-36.34 18.99 -35.68 19.98 -35 21 C-32.04935852 21.2208564 -29.31631769 21.28060989 -26.375 21.1875 C-25.57320312 21.17396484 -24.77140625 21.16042969 -23.9453125 21.14648438 C-21.96325622 21.11109051 -19.98154449 21.05728234 -18 21 C-18 20.01 -18 19.02 -18 18 C-20.97 18 -23.94 18 -27 18 C-27 17.34 -27 16.68 -27 16 C-28.32 15.67 -29.64 15.34 -31 15 C-30.34 14.67 -29.68 14.34 -29 14 C-28.01 14.33 -27.02 14.66 -26 15 C-19.51018128 15.78082631 -14.31597924 14.90054575 -9 11 C-5.54904272 7.62376817 -2.67484129 4.01226194 0 0 Z " fill="#6E9BC8" transform="translate(789,217)"/>
<path d="M0 0 C1.32 0 2.64 0 4 0 C3.67 46.2 3.34 92.4 3 140 C2.67 140 2.34 140 2 140 C2 98.42 2 56.84 2 14 C1.34 14 0.68 14 0 14 C0 9.38 0 4.76 0 0 Z " fill="#F9EB33" transform="translate(956,0)"/>
<path d="M0 0 C0.48210937 0.97582031 0.96421875 1.95164063 1.4609375 2.95703125 C2.09885158 4.24224049 2.73687831 5.52739382 3.375 6.8125 C3.69210937 7.45509766 4.00921875 8.09769531 4.3359375 8.75976562 C5.76458611 11.63194461 7.21785473 14.3267821 9 17 C9.38091797 15.62714844 9.38091797 15.62714844 9.76953125 14.2265625 C10.11371094 13.03804688 10.45789063 11.84953125 10.8125 10.625 C11.14894531 9.44164062 11.48539062 8.25828125 11.83203125 7.0390625 C13 4 13 4 16 2 C15.35482025 4.91681264 14.7088818 7.83345373 14.0625 10.75 C13.88009766 11.575 13.69769531 12.4 13.50976562 13.25 C13.33251953 14.04921875 13.15527344 14.8484375 12.97265625 15.671875 C12.81031494 16.4050293 12.64797363 17.13818359 12.48071289 17.89355469 C12.01446454 19.93661753 11.51579351 21.96893762 11 24 C7.64671289 22.88223763 7.41688617 22.51607905 5.73828125 19.62109375 C5.14370117 18.61079102 5.14370117 18.61079102 4.53710938 17.58007812 C4.13298828 16.87302734 3.72886719 16.16597656 3.3125 15.4375 C2.89677734 14.72658203 2.48105469 14.01566406 2.05273438 13.28320312 C1.02716889 11.52677489 0.01253329 9.76397309 -1 8 C-1.26554687 8.78246094 -1.53109375 9.56492187 -1.8046875 10.37109375 C-2.15789062 11.38300781 -2.51109375 12.39492188 -2.875 13.4375 C-3.22304688 14.44683594 -3.57109375 15.45617187 -3.9296875 16.49609375 C-5 19 -5 19 -7 20 C-6.6889315 17.93728361 -6.37608484 15.87483534 -6.0625 13.8125 C-5.88847656 12.66394531 -5.71445312 11.51539063 -5.53515625 10.33203125 C-5.08620687 7.53674788 -4.57917838 4.77066414 -4 2 C-5.65 2 -7.3 2 -9 2 C-5.5647952 -0.29013653 -4.014669 -0.17842973 0 0 Z " fill="#759CC2" transform="translate(484,254)"/>
<path d="M0 0 C1.36377274 0.01078583 1.36377274 0.01078583 2.75509644 0.02178955 C4.18930939 0.02135147 4.18930939 0.02135147 5.65249634 0.02090454 C8.82334363 0.02230157 11.993958 0.03788034 15.1647644 0.05352783 C17.35908886 0.05725663 19.55341498 0.06010423 21.7477417 0.06210327 C27.53132704 0.06975018 33.3148124 0.08940775 39.09835815 0.11151123 C44.99678189 0.13194691 50.89522174 0.14110011 56.79367065 0.15118408 C68.37314174 0.17265264 79.95253852 0.20680132 91.5319519 0.24884033 C92.0269519 8.16884033 92.0269519 8.16884033 92.5319519 16.24884033 C91.8719519 16.24884033 91.2119519 16.24884033 90.5319519 16.24884033 C90.5319519 11.29884033 90.5319519 6.34884033 90.5319519 1.24884033 C58.8519519 1.57884033 27.1719519 1.90884033 -5.4680481 2.24884033 C-5.7980481 3.23884033 -6.1280481 4.22884033 -6.4680481 5.24884033 C-5.4161731 5.00134033 -4.3642981 4.75384033 -3.2805481 4.49884033 C0.5319519 4.24884033 0.5319519 4.24884033 3.4694519 6.18634033 C4.1500769 6.86696533 4.8307019 7.54759033 5.5319519 8.24884033 C5.2019519 8.90884033 4.8719519 9.56884033 4.5319519 10.24884033 C3.5419519 9.58884033 2.5519519 8.92884033 1.5319519 8.24884033 C-0.74717747 7.79489481 -0.74717747 7.79489481 -3.1555481 7.62384033 C-4.36791138 7.51169189 -4.36791138 7.51169189 -5.60476685 7.39727783 C-6.21964966 7.34829346 -6.83453247 7.29930908 -7.4680481 7.24884033 C-8.0930481 4.87384033 -8.0930481 4.87384033 -8.4680481 2.24884033 C-5.76578352 -0.45342425 -3.6701654 0.01219636 0 0 Z " fill="#719AC3" transform="translate(242.46804809570313,87.75115966796875)"/>
<path d="M0 0 C2 1.3125 2 1.3125 4 4 C4.55386882 8.8049918 4.53371415 13.39885754 3 18 C-0.0625 19.1875 -0.0625 19.1875 -3 20 C-2.34 20.33 -1.68 20.66 -1 21 C-1.66 22.32 -2.32 23.64 -3 25 C-3.495 24.01 -3.495 24.01 -4 23 C-6.31 23 -8.62 23 -11 23 C-11 22.67 -11 22.34 -11 22 C-9.02 22 -7.04 22 -5 22 C-5 21.34 -5 20.68 -5 20 C-5.53882813 20.0721875 -6.07765625 20.144375 -6.6328125 20.21875 C-13.43247291 20.9861098 -20.22627318 21.1719635 -27.0625 21.25 C-27.98369629 21.27126953 -28.90489258 21.29253906 -29.85400391 21.31445312 C-36.37253636 21.34693558 -41.87118811 20.20089494 -48 18 C-48 17.67 -48 17.34 -48 17 C-45.36 17 -42.72 17 -40 17 C-40 17.66 -40 18.32 -40 19 C-36.03047101 18.88201056 -32.06119219 18.75778201 -28.09204102 18.62768555 C-26.74085853 18.58428777 -25.38961947 18.5426163 -24.03833008 18.50268555 C-22.09963299 18.44510048 -20.16113724 18.38085702 -18.22265625 18.31640625 C-17.05484619 18.27974854 -15.88703613 18.24309082 -14.68383789 18.20532227 C-12.08220205 18.29923812 -12.08220205 18.29923812 -11 17 C-8.98035801 16.92755947 -6.95832876 16.91622812 -4.9375 16.9375 C-3.28041016 16.95103516 -3.28041016 16.95103516 -1.58984375 16.96484375 C-0.73519531 16.97644531 0.11945312 16.98804687 1 17 C1.74134815 13.34309779 2.40044019 9.68301024 3 6 C2.34 6 1.68 6 1 6 C0.505 3.03 0.505 3.03 0 0 Z " fill="#F3E94A" transform="translate(918,62)"/>
<path d="M0 0 C0.33 1.65 0.66 3.3 1 5 C-2.88309282 8.64775386 -5.71201818 9.58525633 -11 10 C-10.34 11.32 -9.68 12.64 -9 14 C-6.03 14 -3.06 14 0 14 C-2.33002055 16.33002055 -3.24690495 16.41956957 -6.4375 16.8125 C-7.21996094 16.92207031 -8.00242187 17.03164063 -8.80859375 17.14453125 C-11 17 -11 17 -12.7578125 15.6875 C-14.71291335 13.03151394 -14.44145262 11.21629769 -14 8 C-10.77127182 1.90129122 -7.13829391 -2.2434638 0 0 Z " fill="#7699BD" transform="translate(717,261)"/>
<path d="M0 0 C0.33 1.65 0.66 3.3 1 5 C-2.88309282 8.64775386 -5.71201818 9.58525633 -11 10 C-10.34 11.32 -9.68 12.64 -9 14 C-6.03 14 -3.06 14 0 14 C-2.33002055 16.33002055 -3.24690495 16.41956957 -6.4375 16.8125 C-7.21996094 16.92207031 -8.00242187 17.03164063 -8.80859375 17.14453125 C-11 17 -11 17 -12.7578125 15.6875 C-14.71291335 13.03151394 -14.44145262 11.21629769 -14 8 C-10.77127182 1.90129122 -7.13829391 -2.2434638 0 0 Z " fill="#7699BE" transform="translate(558,261)"/>
<path d="M0 0 C0.33 1.65 0.66 3.3 1 5 C-2.88309282 8.64775386 -5.71201818 9.58525633 -11 10 C-10.34 11.32 -9.68 12.64 -9 14 C-6.03 14 -3.06 14 0 14 C-2.33002055 16.33002055 -3.24690495 16.41956957 -6.4375 16.8125 C-7.21996094 16.92207031 -8.00242187 17.03164063 -8.80859375 17.14453125 C-11 17 -11 17 -12.7578125 15.6875 C-14.71291335 13.03151394 -14.44145262 11.21629769 -14 8 C-10.77127182 1.90129122 -7.13829391 -2.2434638 0 0 Z " fill="#7699BB" transform="translate(516,261)"/>
<path d="M0 0 C0 0.66 0 1.32 0 2 C-18.77003683 5.64130045 -37.12007857 6.29369346 -56 3 C-56 2.67 -56 2.34 -56 2 C-48.41 2 -40.82 2 -33 2 C-33 1.67 -33 1.34 -33 1 C-29.56270271 0.82897661 -26.12513833 0.66401369 -22.6875 0.5 C-21.25180664 0.42845703 -21.25180664 0.42845703 -19.78710938 0.35546875 C-13.18610932 0.0443105 -6.60795095 -0.05821271 0 0 Z " fill="#FEFBCB" transform="translate(913,82)"/>
<path d="M0 0 C0.4125 0.38671875 0.825 0.7734375 1.25 1.171875 C8.28561731 7.51649418 14.47680128 10.55911117 24 11 C24 11.33 24 11.66 24 12 C22.53626953 11.98259766 22.53626953 11.98259766 21.04296875 11.96484375 C19.77066406 11.95582031 18.49835938 11.94679687 17.1875 11.9375 C15.92292969 11.92589844 14.65835938 11.91429687 13.35546875 11.90234375 C10.00394763 11.83840884 10.00394763 11.83840884 7 13 C6.67 13.66 6.34 14.32 6 15 C8.46120841 16.23060421 10.25776866 16.2057723 13.0078125 16.31640625 C13.99394531 16.35830078 14.98007813 16.40019531 15.99609375 16.44335938 C17.02863281 16.48267578 18.06117188 16.52199219 19.125 16.5625 C20.68541016 16.62727539 20.68541016 16.62727539 22.27734375 16.69335938 C24.85142528 16.7996288 27.42560508 16.90166583 30 17 C30 17.33 30 17.66 30 18 C17.52549507 20.94075782 5.64977871 18.76770303 -6 14 C-1.99799622 12.39919849 1.04556236 13.70720308 5 15 C4.649375 14.21625 4.29875 13.4325 3.9375 12.625 C3.628125 11.75875 3.31875 10.8925 3 10 C3.33 9.34 3.66 8.68 4 8 C3.01 7.34 2.02 6.68 1 6 C1 5.34 1 4.68 1 4 C0.68521554 2.66216607 0.35412344 1.32796291 0 0 Z " fill="#719AC5" transform="translate(143,222)"/>
<path d="M0 0 C0.4125 0.7425 0.825 1.485 1.25 2.25 C5.39588795 6.39588795 10.44821726 7.43746995 16 9 C15.67 10.32 15.34 11.64 15 13 C0.64996204 13.19778 -13.6643977 12.59154812 -28 12 C-28 11.67 -28 11.34 -28 11 C-18.76 10.67 -9.52 10.34 0 10 C0 6.7 0 3.4 0 0 Z " fill="#709AC3" transform="translate(629,226)"/>
<path d="M0 0 C1.12047981 -0.0049926 1.12047981 -0.0049926 2.26359558 -0.01008606 C3.85500472 -0.01516455 5.44642457 -0.0174941 7.0378418 -0.01733398 C9.43231872 -0.01948794 11.82630988 -0.03754104 14.22070312 -0.05664062 C32.04383128 -0.12382928 32.04383128 -0.12382928 39.66796875 2.16796875 C40.16296875 3.15796875 40.16296875 3.15796875 40.66796875 4.16796875 C33.36812692 4.29382809 33.36812692 4.29382809 29.89868164 3.67016602 C26.75316606 3.18121222 23.82064272 3.03869606 20.640625 3.03515625 C19.51849609 3.03386719 18.39636719 3.03257813 17.24023438 3.03125 C16.08201172 3.03511719 14.92378906 3.03898437 13.73046875 3.04296875 C12.57611328 3.03910156 11.42175781 3.03523438 10.23242188 3.03125 C4.59588655 3.03771763 -0.7570384 3.2625671 -6.33203125 4.16796875 C-8.31031974 4.23049367 -10.29040576 4.2549024 -12.26953125 4.23046875 C-13.22730469 4.22144531 -14.18507813 4.21242188 -15.171875 4.203125 C-15.88472656 4.19152344 -16.59757813 4.17992187 -17.33203125 4.16796875 C-14.57275781 1.40869531 -12.12049073 1.65013632 -8.33203125 1.16796875 C-6.38163758 -0.78242492 -2.66261539 0.0040995 0 0 Z " fill="#F5EB58" transform="translate(879.33203125,46.83203125)"/>
<path d="M0 0 C4.29 0.99 8.58 1.98 13 3 C13 4.65 13 6.3 13 8 C10.47255912 9.26372044 8.73619692 9.12022795 5.90771484 9.11352539 C4.31629166 9.11341209 4.31629166 9.11341209 2.69271851 9.11329651 C0.96923691 9.10555458 0.96923691 9.10555458 -0.7890625 9.09765625 C-1.96262299 9.0962413 -3.13618347 9.09482635 -4.3453064 9.09336853 C-8.10522985 9.08775689 -11.86509445 9.07520238 -15.625 9.0625 C-18.16926998 9.0574865 -20.71354088 9.05292333 -23.2578125 9.04882812 C-29.50522853 9.03778368 -35.75261006 9.02103418 -42 9 C-42.33 7.35 -42.66 5.7 -43 4 C-40 2 -40 2 -37.8125 2.375 C-37.214375 2.58125 -36.61625 2.7875 -36 3 C-37.65 3.33 -39.3 3.66 -41 4 C-41 5.32 -41 6.64 -41 8 C-39.86691406 7.84789062 -38.73382813 7.69578125 -37.56640625 7.5390625 C-30.81006133 6.79085447 -24.02403763 6.63727357 -17.23413086 6.44238281 C-14.93900176 6.37504406 -12.64438305 6.29717866 -10.34960938 6.21875 C-8.86720676 6.17383872 -7.38478523 6.12954693 -5.90234375 6.0859375 C-4.89106667 6.05009048 -4.89106667 6.05009048 -3.85935974 6.01351929 C0.87878121 5.89075528 5.32415462 6.32602187 10 7 C10 6.01 10 5.02 10 4 C5.05 3.01 5.05 3.01 0 2 C0 1.34 0 0.68 0 0 Z " fill="#719AC2" transform="translate(519,230)"/>
<path d="M0 0 C0.33 1.32 0.66 2.64 1 4 C1.9075 3.154375 2.815 2.30875 3.75 1.4375 C6.68013366 -1.00888518 6.68013366 -1.00888518 9.25 -0.9375 C11 0 11 0 13 2 C12.44570313 2.17015625 11.89140625 2.3403125 11.3203125 2.515625 C6.8245834 3.80537593 6.8245834 3.80537593 3.8125 7.0625 C3.544375 7.701875 3.27625 8.34125 3 9 C0.375 10.25 0.375 10.25 -2 11 C-2 12.65 -2 14.3 -2 16 C-3.32 16.33 -4.64 16.66 -6 17 C-5.01 11.72 -4.02 6.44 -3 1 C-3.99 0.67 -4.98 0.34 -6 0 C-3.50907189 -1.24546405 -2.58919267 -0.7767578 0 0 Z " fill="#779DC2" transform="translate(752,261)"/>
<path d="M0 0 C0.33 0.99 0.66 1.98 1 3 C-1.41392732 7.2707945 -4.26058777 10.82149961 -8 14 C-9.32 14 -10.64 14 -12 14 C-11.56476716 8.86425246 -11.19875176 5.22235233 -8 1 C-5.29120665 -0.35439668 -2.99066732 -0.06501451 0 0 Z " fill="#F6FEFD" transform="translate(838,262)"/>
<path d="M0 0 C0.33 0 0.66 0 1 0 C1.33921452 3.18690233 1.67029417 6.37460104 2 9.5625 C2.09539062 10.45775391 2.19078125 11.35300781 2.2890625 12.27539062 C2.79567965 17.21490788 3.10897382 22.03488014 3 27 C1.35 27.33 -0.3 27.66 -2 28 C-2.67354499 26.56570999 -3.33859701 25.12742943 -4 23.6875 C-4.37125 22.88699219 -4.7425 22.08648437 -5.125 21.26171875 C-6 19 -6 19 -6 16 C-4.35 15.67 -2.7 15.34 -1 15 C-0.67 10.05 -0.34 5.1 0 0 Z " fill="#6E9AC7" transform="translate(79,99)"/>
<path d="M0 0 C0.66 0.33 1.32 0.66 2 1 C1.28854076 3.13437771 0.57676916 5.26864293 -0.13671875 7.40234375 C-0.70808987 9.12162788 -1.27329331 10.84297514 -1.83203125 12.56640625 C-2.09371094 13.36949219 -2.35539063 14.17257812 -2.625 15 C-2.98464844 16.11375 -2.98464844 16.11375 -3.3515625 17.25 C-4 19 -4 19 -5 20 C-0.71 20 3.58 20 8 20 C5 23 5 23 3.00708008 23.34057617 C1.89949341 23.3170105 1.89949341 23.3170105 0.76953125 23.29296875 C-0.03291016 23.28330078 -0.83535156 23.27363281 -1.66210938 23.26367188 C-2.91217773 23.2259668 -2.91217773 23.2259668 -4.1875 23.1875 C-5.4549707 23.16719727 -5.4549707 23.16719727 -6.74804688 23.14648438 C-8.83230384 23.11115799 -10.91623277 23.05735139 -13 23 C-12.67 22.34 -12.34 21.68 -12 21 C-11.37222656 20.79246094 -10.74445312 20.58492188 -10.09765625 20.37109375 C-6.77111138 18.19675995 -6.39327935 14.72149366 -5.4375 11.0625 C-3.08460958 2.27992882 -3.08460958 2.27992882 0 0 Z " fill="#749ABF" transform="translate(691,255)"/>
<path d="M0 0 C1.32 0.66 2.64 1.32 4 2 C3.67 2.99 3.34 3.98 3 5 C2.01 5 1.02 5 0 5 C0.18175781 6.19302734 0.18175781 6.19302734 0.3671875 7.41015625 C2.42318303 22.19750869 3.12733751 37.10581185 4 52 C6.61047801 50.694761 6.68066423 49.64173426 7.625 46.9375 C7.88539062 46.20402344 8.14578125 45.47054687 8.4140625 44.71484375 C8.60742188 44.14894531 8.80078125 43.58304688 9 43 C10.32 43.33 11.64 43.66 13 44 C12.01 44 11.02 44 10 44 C9.82984375 44.71027344 9.6596875 45.42054688 9.484375 46.15234375 C9.24203125 47.07144531 8.9996875 47.99054688 8.75 48.9375 C8.51796875 49.85402344 8.2859375 50.77054688 8.046875 51.71484375 C7 54 7 54 4.890625 54.81640625 C4.26671875 54.87699219 3.6428125 54.93757813 3 55 C1.69252666 51.07757998 1.53744822 47.1858164 1.24609375 43.08984375 C1.18092056 42.20776749 1.11574738 41.32569122 1.04859924 40.41688538 C0.91143877 38.54669814 0.77623151 36.67636678 0.64282227 34.8059082 C0.43999667 31.97237918 0.22925985 29.13952015 0.01757812 26.30664062 C-0.11506385 24.48440991 -0.24723967 22.6621452 -0.37890625 20.83984375 C-0.44139053 20.00404282 -0.50387482 19.16824188 -0.56825256 18.30711365 C-0.97108687 12.56303983 -1.35458967 6.75462225 -1 1 C-0.67 0.67 -0.34 0.34 0 0 Z " fill="#7499C1" transform="translate(7,187)"/>
<path d="M0 0 C3.25696479 0.41755959 4.63443291 0.63443291 7 3 C7.6328125 5.1640625 7.6328125 5.1640625 8.125 7.625 C8.29257812 8.44226563 8.46015625 9.25953125 8.6328125 10.1015625 C8.81457031 11.04128906 8.81457031 11.04128906 9 12 C13.41802757 7.68171172 13.41802757 7.68171172 15.375 2.0625 C15.25125 1.381875 15.1275 0.70125 15 0 C16.32 0 17.64 0 19 0 C18.89169663 4.44043813 17.77645014 6.55275371 14.6875 9.5625 C14.0584375 10.14257812 13.429375 10.72265625 12.78125 11.3203125 C10.79908045 13.1068549 10.79908045 13.1068549 8.6875 15.9375 C7.8521875 16.9584375 7.8521875 16.9584375 7 18 C6.34 18 5.68 18 5 18 C4.86722656 17.08476562 4.73445312 16.16953125 4.59765625 15.2265625 C4.42105469 14.03804688 4.24445312 12.84953125 4.0625 11.625 C3.88847656 10.44164062 3.71445312 9.25828125 3.53515625 8.0390625 C3.16537214 5.09297619 3.16537214 5.09297619 2 3 C1.01 2.34 0.02 1.68 -1 1 C-0.67 0.67 -0.34 0.34 0 0 Z " fill="#7599BF" transform="translate(523,260)"/>
<path d="M0 0 C1.11375 0.1546875 1.11375 0.1546875 2.25 0.3125 C2.984375 2.51171875 2.984375 2.51171875 3.25 5.3125 C1.703125 7.76953125 1.703125 7.76953125 -0.5 10.125 C-1.57507813 11.31029297 -1.57507813 11.31029297 -2.671875 12.51953125 C-4.75 14.3125 -4.75 14.3125 -7.75 14.3125 C-7.55255572 9.78115366 -7.28023911 6.24041845 -5 2.25 C-2.75 0.3125 -2.75 0.3125 0 0 Z " fill="#F6FDFD" transform="translate(731.75,261.6875)"/>
<path d="M0 0 C0.33 0 0.66 0 1 0 C3.25965008 13.59434646 4.96812624 35.04781064 -3 47 C-3.66 44.03 -4.32 41.06 -5 38 C-4.01 37.34 -3.02 36.68 -2 36 C-2.33 34.35 -2.66 32.7 -3 31 C-2.01 31.33 -1.02 31.66 0 32 C0 21.44 0 10.88 0 0 Z " fill="#6F9BC5" transform="translate(221,143)"/>
<path d="M0 0 C-0.19744428 4.53134634 -0.46976089 8.07208155 -2.75 12.0625 C-5 14 -5 14 -7.75 14.3125 C-8.86375 14.1578125 -8.86375 14.1578125 -10 14 C-10.75 12.375 -10.75 12.375 -11 10 C-5.375 0 -5.375 0 0 0 Z " fill="#F5FEFD" transform="translate(664,262)"/>
<path d="M0 0 C0.66 0.33 1.32 0.66 2 1 C-1.89429175 4.89429175 -1.89429175 4.89429175 -5.04296875 5.1953125 C-5.75066406 5.17210937 -6.45835938 5.14890625 -7.1875 5.125 C-9.0746875 5.063125 -9.0746875 5.063125 -11 5 C-11.66 5.66 -12.32 6.32 -13 7 C-6.07 7 0.86 7 8 7 C4.43492558 10.56507442 -0.2857763 10.17866009 -5.125 10.25 C-11.47473922 10.22103882 -17.00489996 9.0183904 -23 7 C-23 6.67 -23 6.34 -23 6 C-19.7 5.67 -16.4 5.34 -13 5 C-13.99 3.68 -14.98 2.36 -16 1 C-15.09636719 1.01160156 -14.19273438 1.02320313 -13.26171875 1.03515625 C-11.49248047 1.04869141 -11.49248047 1.04869141 -9.6875 1.0625 C-8.51574219 1.07410156 -7.34398437 1.08570313 -6.13671875 1.09765625 C-2.96940805 1.14899898 -2.96940805 1.14899898 0 0 Z " fill="#719AC5" transform="translate(55,231)"/>
<path d="M0 0 C0.33 0 0.66 0 1 0 C1 1.65 1 3.3 1 5 C-2.3 5 -5.6 5 -9 5 C-8.67 25.13 -8.34 45.26 -8 66 C-8.66 66 -9.32 66 -10 66 C-10.02312737 57.93347826 -10.04091709 49.86697028 -10.05181217 41.80042362 C-10.05704014 38.05516963 -10.06413622 34.30993824 -10.07543945 30.56469727 C-10.08627141 26.95318313 -10.09227749 23.34169079 -10.09487724 19.73016167 C-10.09673094 18.34939671 -10.10035049 16.968633 -10.10573006 15.58787727 C-10.11294447 13.66024048 -10.11340809 11.73258193 -10.11352539 9.80493164 C-10.115746 8.70572891 -10.11796661 7.60652618 -10.12025452 6.47401428 C-10 4 -10 4 -9 3 C-6.32941149 2.85884839 -3.67567762 2.95752893 -1 3 C-0.67 2.01 -0.34 1.02 0 0 Z " fill="#709AC4" transform="translate(637,160)"/>
<path d="M0 0 C2.97 0.495 2.97 0.495 6 1 C6 1.66 6 2.32 6 3 C7.72926874 2.68806536 9.45841044 2.37542638 11.1875 2.0625 C12.63189453 1.80146484 12.63189453 1.80146484 14.10546875 1.53515625 C16.74239972 1.0476265 19.3719905 0.53328895 22 0 C21 2 21 2 18.5234375 3.03515625 C17.48445312 3.37417969 16.44546875 3.71320313 15.375 4.0625 C13.83972656 4.57490234 13.83972656 4.57490234 12.2734375 5.09765625 C4.70962766 7.18266827 -2.65332372 7.12255596 -10.4375 7.0625 C-11.55060547 7.05798828 -12.66371094 7.05347656 -13.81054688 7.04882812 C-16.54042101 7.03711193 -19.27018174 7.02070699 -22 7 C-22 6.67 -22 6.34 -22 6 C-14.74 6 -7.48 6 0 6 C0 4.02 0 2.04 0 0 Z " fill="#6F9AC6" transform="translate(537,161)"/>
<path d="M0 0 C0.66 0 1.32 0 2 0 C1.67 1.98 1.34 3.96 1 6 C2.98 6 4.96 6 7 6 C7 6.33 7 6.66 7 7 C5.02 7 3.04 7 1 7 C0.01 11.95 -0.98 16.9 -2 22 C-0.35 21.67 1.3 21.34 3 21 C1.8125 22.5625 1.8125 22.5625 0 24 C-2.6875 23.6875 -2.6875 23.6875 -5 23 C-4.57910004 17.39538469 -4.08386889 12.27913453 -2 7 C-2.99 6.67 -3.98 6.34 -5 6 C-4.01 6 -3.02 6 -2 6 C-1.855625 5.195625 -1.71125 4.39125 -1.5625 3.5625 C-1 1 -1 1 0 0 Z " fill="#7699BD" transform="translate(619,254)"/>
<path d="M0 0 C0.66 0.33 1.32 0.66 2 1 C1.67 2.32 1.34 3.64 1 5 C0.34 4.01 -0.32 3.02 -1 2 C-3.31 2.33 -5.62 2.66 -8 3 C-7.91120273 5.93030993 -7.3879905 7.59922864 -5.33984375 9.71484375 C-4.69144531 10.30394531 -4.04304687 10.89304687 -3.375 11.5 C-1.46484375 13.2890625 -1.46484375 13.2890625 0 15 C0.0625 17.875 0.0625 17.875 -1 20 C-1.66 20.33 -2.32 20.66 -3 21 C-3.12375 19.576875 -3.12375 19.576875 -3.25 18.125 C-3.62788694 14.93674268 -3.62788694 14.93674268 -5.8125 13.875 C-6.8953125 13.441875 -6.8953125 13.441875 -8 13 C-10.3125 11.25 -10.3125 11.25 -12 9 C-12 5.54176408 -11.65281014 3.75324247 -9.375 1.125 C-6.13259827 -0.4108745 -3.54250417 -0.26240772 0 0 Z " fill="#7599BD" transform="translate(608,254)"/>
<path d="M0 0 C0.99 0 1.98 0 3 0 C3 1.32 3 2.64 3 4 C2.34 4 1.68 4 1 4 C1.33 4.66 1.66 5.32 2 6 C2.1235756 8.46514593 2.18798705 10.90085039 2.203125 13.3671875 C2.21000336 14.11009033 2.21688171 14.85299316 2.22396851 15.6184082 C2.24124376 18.03732118 2.24743759 20.4560284 2.25 22.875 C2.25167175 23.69212463 2.25334351 24.50924927 2.25506592 25.35113525 C2.25684654 39.80658548 1.95872968 54.24491506 -3 68 C-4.4861489 64.05675157 -3.52552284 60.8984369 -2.625 56.875 C-0.59751531 47.76079313 0.15774987 38.82375886 0.09765625 29.4921875 C0.0962413 28.64069122 0.09482635 27.78919495 0.09336853 26.91189575 C0.08783919 24.23289241 0.07530074 21.55397743 0.0625 18.875 C0.05747584 17.04166789 0.05291455 15.20833444 0.04882812 13.375 C0.03789306 8.91663341 0.02067872 4.45833161 0 0 Z " fill="#729AC2" transform="translate(193,140)"/>
<path d="M0 0 C1.30102931 4.32058242 0.72449924 7.58055464 0 12 C-0.33 12.33 -0.66 12.66 -1 13 C-1.97209445 24.1790862 0.38679633 35.228026 6 45 C6.66 45.33 7.32 45.66 8 46 C8 46.66 8 47.32 8 48 C8.99 48.33 9.98 48.66 11 49 C10.67 50.32 10.34 51.64 10 53 C-0.17863746 42.34793754 -3.44235995 30.03670895 -3.26953125 15.59765625 C-2.86518958 10.20057392 -1.58767336 5.15993843 0 0 Z " fill="#719AC2" transform="translate(9,108)"/>
<path d="M0 0 C1.67542976 0.28604898 3.34385343 0.61781233 5 1 C5 1.99 5 2.98 5 4 C5.99 4 6.98 4 8 4 C6.16508812 8.74018901 4.08058541 13.36413251 2 18 C1.01 18 0.02 18 -1 18 C-0.01 12.72 0.98 7.44 2 2 C1.01 1.67 0.02 1.34 -1 1 C-0.67 0.67 -0.34 0.34 0 0 Z " fill="#89ABCA" transform="translate(766,260)"/>
<path d="M0 0 C0.33 0 0.66 0 1 0 C1.4689832 16.79654633 0.6728294 32.31715731 -6 48 C-7.1577506 44.52674819 -7.06866652 41.63932552 -7 38 C-5.515 37.505 -5.515 37.505 -4 37 C-3.01297197 32.48434678 -2.62994695 28.02733567 -2.28125 23.42578125 C-2 21 -2 21 -1 19 C-0.84932786 17.5534758 -0.75138964 16.1012066 -0.68359375 14.6484375 C-0.64169922 13.79765625 -0.59980469 12.946875 -0.55664062 12.0703125 C-0.51732422 11.18085938 -0.47800781 10.29140625 -0.4375 9.375 C-0.37272461 8.02921875 -0.37272461 8.02921875 -0.30664062 6.65625 C-0.20043139 4.43765717 -0.09838806 2.2189512 0 0 Z " fill="#719AC3" transform="translate(827,150)"/>
<path d="M0 0 C1.67542976 0.28604898 3.34385343 0.61781233 5 1 C5.33 2.32 5.66 3.64 6 5 C6.66 4.67 7.32 4.34 8 4 C6.16508812 8.74018901 4.08058541 13.36413251 2 18 C1.01 18 0.02 18 -1 18 C-0.01 12.72 0.98 7.44 2 2 C1.01 1.67 0.02 1.34 -1 1 C-0.67 0.67 -0.34 0.34 0 0 Z " fill="#7399C2" transform="translate(802,260)"/>
<path d="M0 0 C0.33 0 0.66 0 1 0 C1.00586624 0.63147446 1.01173248 1.26294891 1.01777649 1.91355896 C1.08196769 8.51679777 1.16645274 15.11956077 1.26245117 21.72241211 C1.29559912 24.18296006 1.32366222 26.6435822 1.34643555 29.10424805 C1.38016755 32.65184997 1.43249428 36.19877824 1.48828125 39.74609375 C1.49467117 40.8370787 1.5010611 41.92806366 1.50764465 43.05210876 C1.63134673 49.55400462 2.50126707 54.97906259 5 61 C3.68 60.67 2.36 60.34 1 60 C0.26811906 56.06873698 -0.12290765 52.35865731 -0.11352539 48.36181641 C-0.11344986 47.28114899 -0.11337433 46.20048157 -0.11329651 45.08706665 C-0.10813522 43.93685028 -0.10297394 42.78663391 -0.09765625 41.6015625 C-0.0962413 40.41146576 -0.09482635 39.22136902 -0.09336853 37.99520874 C-0.0877842 34.20511328 -0.07523451 30.41507752 -0.0625 26.625 C-0.05748298 24.0507821 -0.05292042 21.47656328 -0.04882812 18.90234375 C-0.03781989 12.60154223 -0.02109731 6.30077538 0 0 Z " fill="#7698BE" transform="translate(514,169)"/>
<path d="M0 0 C0.82757812 0.69029297 0.82757812 0.69029297 1.671875 1.39453125 C-0.91161801 0.91333816 -3.42245313 0.36739961 -5.94921875 -0.359375 C-13.77659674 -2.60662499 -21.19752432 -3.20859462 -29.328125 -2.60546875 C-29.658125 -2.27546875 -29.988125 -1.94546875 -30.328125 -1.60546875 C-32.0296875 -1.38890625 -32.0296875 -1.38890625 -33.765625 -1.16796875 C-37.36871497 -0.95699324 -37.36871497 -0.95699324 -39.328125 1.39453125 C-42.953125 1.51953125 -42.953125 1.51953125 -46.328125 1.39453125 C-36.76622642 -8.16736733 -10.39698895 -7.16973567 0 0 Z " fill="#7299C3" transform="translate(791.328125,90.60546875)"/>
<path d="M0 0 C-0.99 0.33 -1.98 0.66 -3 1 C-2.01 1.66 -1.02 2.32 0 3 C-9.24 3 -18.48 3 -28 3 C-28 2.34 -28 1.68 -28 1 C-24.0842664 0.63496641 -20.1673377 0.28486118 -16.25 -0.0625 C-15.13882813 -0.16626953 -14.02765625 -0.27003906 -12.8828125 -0.37695312 C-11.27792969 -0.51713867 -11.27792969 -0.51713867 -9.640625 -0.66015625 C-8.65610352 -0.74918213 -7.67158203 -0.83820801 -6.65722656 -0.92993164 C-4.18587734 -0.9950986 -2.34204999 -0.74100129 0 0 Z " fill="#FCF9AB" transform="translate(868,107)"/>
<path d="M0 0 C-0.31045732 1.9169986 -0.62344671 3.83358723 -0.9375 5.75 C-1.11152344 6.81734375 -1.28554688 7.8846875 -1.46484375 8.984375 C-1.88704171 11.36347593 -2.37202884 13.66915211 -3 16 C-1.68 15.67 -0.36 15.34 1 15 C-0.25 16.5625 -0.25 16.5625 -2 18 C-4.109375 17.58984375 -4.109375 17.58984375 -6 17 C-5.85795259 15.41632253 -5.71119847 13.83306682 -5.5625 12.25 C-5.48128906 11.36828125 -5.40007813 10.4865625 -5.31640625 9.578125 C-5.03761535 7.30649548 -4.61209423 5.20148177 -4 3 C-5.32 2.67 -6.64 2.34 -8 2 C-2.25 0 -2.25 0 0 0 Z " fill="#7599BF" transform="translate(796,260)"/>
<path d="M0 0 C1.65 0.33 3.3 0.66 5 1 C4.85816304 2.75032844 4.71136571 4.50025534 4.5625 6.25 C4.48128906 7.22453125 4.40007813 8.1990625 4.31640625 9.203125 C4.04925416 11.56461753 3.64628032 13.71901065 3 16 C4.32 15.67 5.64 15.34 7 15 C5.75 16.5625 5.75 16.5625 4 18 C1.890625 17.58984375 1.890625 17.58984375 0 17 C0.96355353 6.44191344 0.96355353 6.44191344 2 2 C0.35 2.66 -1.3 3.32 -3 4 C-2.01 2.68 -1.02 1.36 0 0 Z " fill="#759CC2" transform="translate(777,260)"/>
<path d="M0 0 C0.33 0 0.66 0 1 0 C1.33 19.8 1.66 39.6 2 60 C1.34 60 0.68 60 0 60 C-0.84071869 56.37679802 -1.09858697 53.0983702 -1.02172852 49.38354492 C-1.00163223 48.28278122 -0.98153595 47.18201752 -0.96083069 46.04789734 C-0.93379562 44.8706459 -0.90676056 43.69339447 -0.87890625 42.48046875 C-0.85529526 41.26676102 -0.83168427 40.05305328 -0.80735779 38.80256653 C-0.73086082 34.93075458 -0.64677591 31.05914968 -0.5625 27.1875 C-0.50926537 24.56055696 -0.45652506 21.93360386 -0.40429688 19.30664062 C-0.2752645 12.87096598 -0.14000385 6.43544481 0 0 Z " fill="#719AC3" transform="translate(275,164)"/>
<path d="M0 0 C0.33 0 0.66 0 1 0 C1 9.9 1 19.8 1 30 C0.01 30.33 -0.98 30.66 -2 31 C-2.50404808 28.89679937 -3.00310508 26.79240209 -3.5 24.6875 C-3.91765625 22.92986328 -3.91765625 22.92986328 -4.34375 21.13671875 C-5 18 -5 18 -5 15 C-4.34 15 -3.68 15 -3 15 C-3 17.31 -3 19.62 -3 22 C-2.01 22 -1.02 22 0 22 C0 14.74 0 7.48 0 0 Z " fill="#7798BC" transform="translate(306,159)"/>
<path d="M0 0 C1.65 0.33 3.3 0.66 5 1 C4.85816304 2.75032844 4.71136571 4.50025534 4.5625 6.25 C4.48128906 7.22453125 4.40007813 8.1990625 4.31640625 9.203125 C4.04925416 11.56461753 3.64628032 13.71901065 3 16 C4.32 15.67 5.64 15.34 7 15 C5.75 16.5625 5.75 16.5625 4 18 C1.890625 17.58984375 1.890625 17.58984375 0 17 C0.96355353 6.44191344 0.96355353 6.44191344 2 2 C0.68 2.33 -0.64 2.66 -2 3 C-1.34 2.01 -0.68 1.02 0 0 Z " fill="#7499BF" transform="translate(813,260)"/>
<path d="M0 0 C1.25 7.625 1.25 7.625 -1 11 C-1.70164642 12.98799818 -2.37372872 14.98698517 -3 17 C-3.99 17 -4.98 17 -6 17 C-5.01 11.72 -4.02 6.44 -3 1 C-3.99 0.67 -4.98 0.34 -6 0 C-3.50907189 -1.24546405 -2.58919267 -0.7767578 0 0 Z " fill="#789CC2" transform="translate(570,261)"/>
<path d="M0 0 C11.9641295 0.20627809 22.75888216 6.57972743 31 15 C30.67 15.66 30.34 16.32 30 17 C29.608125 16.505 29.21625 16.01 28.8125 15.5 C26.44908285 13.54406857 24.98564997 13.75792027 22 14 C21.79375 13.236875 21.5875 12.47375 21.375 11.6875 C19.54055773 8.1019992 17.6639527 7.55013383 14 6 C13.05125 5.46375 12.1025 4.9275 11.125 4.375 C7.30619174 2.69472437 4.14442267 2.35727782 0 2 C0 1.34 0 0.68 0 0 Z " fill="#729AC4" transform="translate(172,87)"/>
<path d="M0 0 C0.66 0.33 1.32 0.66 2 1 C2 3.97 2 6.94 2 10 C1.34 10 0.68 10 0 10 C0 10.99 0 11.98 0 13 C-0.66 13 -1.32 13 -2 13 C-2.12375 13.78375 -2.2475 14.5675 -2.375 15.375 C-3 18 -3 18 -5 20 C-7.92341206 21.3492671 -9.75207316 22 -13 22 C-11 19 -11 19 -8.5625 17.625 C-5.63541907 15.76880234 -4.68443627 13.96781628 -3 11 C-2.34 11 -1.68 11 -1 11 C-0.67 7.37 -0.34 3.74 0 0 Z " fill="#F6EB42" transform="translate(947,69)"/>
<path d="M0 0 C4.95 0 9.9 0 15 0 C15.33 0.66 15.66 1.32 16 2 C15.2265625 1.95359375 14.453125 1.9071875 13.65625 1.859375 C6.84512563 1.62334594 1.51606857 1.72296195 -4 6 C-6.55207904 8.51015577 -8.7963217 11.18263914 -11 14 C-11.804375 14.99 -12.60875 15.98 -13.4375 17 C-13.953125 17.66 -14.46875 18.32 -15 19 C-13.83287349 12.69751686 -9.67339734 7.34934918 -4.9375 3.1875 C-3 2 -3 2 0 2 C0 1.34 0 0.68 0 0 Z " fill="#739AC2" transform="translate(759,93)"/>
<path d="M0 0 C0.33 0 0.66 0 1 0 C1.33 4.95 1.66 9.9 2 15 C1.01 15.33 0.02 15.66 -1 16 C-2.32 13.03 -3.64 10.06 -5 7 C-4.01 7 -3.02 7 -2 7 C-1.855625 6.21625 -1.71125 5.4325 -1.5625 4.625 C-1 2 -1 2 0 0 Z " fill="#709AC7" transform="translate(336,112)"/>
<path d="M0 0 C0.99 0.33 1.98 0.66 3 1 C3 10.57 3 20.14 3 30 C2.67 30 2.34 30 2 30 C1.67 21.75 1.34 13.5 1 5 C0.01 7.31 -0.98 9.62 -2 12 C-3.30532548 9.38934904 -2.78282536 8.2445219 -2.125 5.4375 C-1.94195312 4.63183594 -1.75890625 3.82617188 -1.5703125 2.99609375 C-1 1 -1 1 0 0 Z " fill="#729AC3" transform="translate(305,128)"/>
<path d="M0 0 C0.66 0 1.32 0 2 0 C1.99097656 0.6290625 1.98195313 1.258125 1.97265625 1.90625 C2.23034267 9.34554501 4.62667831 12.97741732 10 18 C8.68 18.33 7.36 18.66 6 19 C5.54625 18.195625 5.0925 17.39125 4.625 16.5625 C3.25274335 13.91143428 3.25274335 13.91143428 1 13 C1 12.01 1 11.02 1 10 C0.34 10 -0.32 10 -1 10 C-1.125 2.25 -1.125 2.25 0 0 Z " fill="#FDF9C1" transform="translate(858,60)"/>
<path d="M0 0 C1.15113281 0.13277344 2.30226563 0.26554687 3.48828125 0.40234375 C14.98425263 1.69036003 26.44362091 2.50823919 38 3 C38 3.33 38 3.66 38 4 C25.94976471 4.11317227 14.01214121 4.03330247 2 3 C2 2.34 2 1.68 2 1 C1.34 0.67 0.68 0.34 0 0 Z " fill="#F5ED6E" transform="translate(853,84)"/>
<path d="M0 0 C1.75 0.9375 1.75 0.9375 3.75 2.9375 C3.19570313 3.10765625 2.64140625 3.2778125 2.0703125 3.453125 C-2.42768986 4.76199017 -2.42768986 4.76199017 -5.5 8 C-5.7475 8.639375 -5.995 9.27875 -6.25 9.9375 C-8.375 11.1875 -8.375 11.1875 -10.25 11.9375 C-9.41016967 7.65436531 -8.67703243 4.89765533 -5.375 1.9375 C-2.25 -0.0625 -2.25 -0.0625 0 0 Z " fill="#E0EDF1" transform="translate(761.25,260.0625)"/>
<path d="M0 0 C0.66 0.33 1.32 0.66 2 1 C1.625 2.9375 1.625 2.9375 1 5 C-1.40059817 6.20029908 -2.89360649 6.11459743 -5.5703125 6.09765625 C-6.46621094 6.09443359 -7.36210938 6.09121094 -8.28515625 6.08789062 C-9.22230469 6.07951172 -10.15945313 6.07113281 -11.125 6.0625 C-12.06988281 6.05798828 -13.01476562 6.05347656 -13.98828125 6.04882812 C-16.32558387 6.03702357 -18.66276061 6.02055759 -21 6 C-21 5.67 -21 5.34 -21 5 C-20.14535156 4.95101562 -19.29070313 4.90203125 -18.41015625 4.8515625 C-17.30542969 4.77679688 -16.20070313 4.70203125 -15.0625 4.625 C-13.40927734 4.52058594 -13.40927734 4.52058594 -11.72265625 4.4140625 C-10.37494141 4.20910156 -10.37494141 4.20910156 -9 4 C-8.67 3.34 -8.34 2.68 -8 2 C-6.35 2 -4.7 2 -3 2 C-3 2.66 -3 3.32 -3 4 C-2.01 4 -1.02 4 0 4 C0 2.68 0 1.36 0 0 Z " fill="#7399C1" transform="translate(703,233)"/>
<path d="M0 0 C1.98 0 3.96 0 6 0 C-0.20017253 4.13344835 -9.61934754 9.99743387 -17.296875 8.57421875 C-17.85890625 8.38472656 -18.4209375 8.19523437 -19 8 C-16.77490707 7.00137441 -14.54770336 6.00814139 -12.31640625 5.0234375 C-10.62326437 4.27537144 -8.93512063 3.51596392 -7.25 2.75 C-4.72024175 1.90674725 -2.64931572 1.84861053 0 2 C0 1.34 0 0.68 0 0 Z " fill="#FCF6AD" transform="translate(919,95)"/>
<path d="M0 0 C1.15665526 3.78322659 0.49106871 5.36552001 -1 9 C-0.67 9.99 -0.34 10.98 0 12 C-0.61875 12.20625 -1.2375 12.4125 -1.875 12.625 C-4.83839739 14.54249243 -5.01737197 16.70117732 -6 20 C-6.66 20.33 -7.32 20.66 -8 21 C-6.22962267 13.4291181 -3.74139138 6.81731788 0 0 Z " fill="#719AC4" transform="translate(718,119)"/>
<path d="M0 0 C0.66 0.33 1.32 0.66 2 1 C1.505 1.680625 1.01 2.36125 0.5 3.0625 C-1.30365111 6.59465009 -1.23021353 9.08636991 -1 13 C1.475 13.99 1.475 13.99 4 15 C4 15.33 4 15.66 4 16 C-1.4 16.36 -1.4 16.36 -3.875 14.875 C-5.57133822 12.04776963 -5.44601397 10.24953036 -5 7 C-3.49987532 4.4352707 -2.10816535 2.10816535 0 0 Z " fill="#7899BB" transform="translate(632,262)"/>
<path d="M0 0 C0.598125 0.226875 1.19625 0.45375 1.8125 0.6875 C1.625 3.0625 1.625 3.0625 0.8125 5.6875 C-2.07659849 7.28410706 -3.87808796 7.6875 -7.1875 7.6875 C-4.27205882 -0.61029412 -4.27205882 -0.61029412 0 0 Z " fill="#F3FEFE" transform="translate(713.1875,262.3125)"/>
<path d="M0 0 C0.598125 0.226875 1.19625 0.45375 1.8125 0.6875 C1.625 3.0625 1.625 3.0625 0.8125 5.6875 C-2.07659849 7.28410706 -3.87808796 7.6875 -7.1875 7.6875 C-4.27205882 -0.61029412 -4.27205882 -0.61029412 0 0 Z " fill="#F3FEFE" transform="translate(512.1875,262.3125)"/>
<path d="M0 0 C0.598125 0.226875 1.19625 0.45375 1.8125 0.6875 C1.625 3.0625 1.625 3.0625 0.8125 5.6875 C-2.07659849 7.28410706 -3.87808796 7.6875 -7.1875 7.6875 C-4.27205882 -0.61029412 -4.27205882 -0.61029412 0 0 Z " fill="#F4FEFE" transform="translate(554.1875,262.3125)"/>
<path d="M0 0 C2.74086056 -0.22223194 4.43963721 -0.34781139 6.8125 1.125 C8.5958666 3.940842 8.45027801 5.71940309 8 9 C6.1875 12.375 6.1875 12.375 4 15 C3.01 15 2.02 15 1 15 C1.7425 13.9790625 1.7425 13.9790625 2.5 12.9375 C4.35306455 9.30858192 4.52177189 7.02509747 4 3 C2.13875077 1.01760473 2.13875077 1.01760473 0 0 Z " fill="#7799BD" transform="translate(636,260)"/>
<path d="M0 0 C7.29926556 -0.36837415 13.26174516 0.08324039 20 3 C21.010625 3.433125 22.02125 3.86625 23.0625 4.3125 C25 6 25 6 25.3125 9.1875 C25.209375 10.115625 25.10625 11.04375 25 12 C24.4225 11.236875 23.845 10.47375 23.25 9.6875 C17.43840087 2.7458677 10.29453765 1.99169457 1.6875 1.1484375 C1.130625 1.09945312 0.57375 1.05046875 0 1 C0 0.67 0 0.34 0 0 Z " fill="#7599C3" transform="translate(276,162)"/>
<path d="M0 0 C0.75 1.75 0.75 1.75 1 4 C-2.06367732 8.5289143 -5.97335812 8.84634449 -11 10 C-11.33 10.66 -11.66 11.32 -12 12 C-8.37 12 -4.74 12 -1 12 C-1 12.33 -1 12.66 -1 13 C-4.96 13 -8.92 13 -13 13 C-13.33 11.68 -13.66 10.36 -14 9 C-13.39671875 8.81824219 -12.7934375 8.63648438 -12.171875 8.44921875 C-6.08803277 6.64422988 -6.08803277 6.64422988 -1 3 C-0.67 2.01 -0.34 1.02 0 0 Z " fill="#7599BE" transform="translate(602,226)"/>
<path d="M0 0 C0.33 0.66 0.66 1.32 1 2 C-1.99740699 8.92785896 -6.27304676 15.14997632 -11 21 C-12.24546405 18.50907189 -11.7767578 17.58919267 -11 15 C-10.01 15 -9.02 15 -8 15 C-6.89904289 12.32624701 -5.92037155 9.72130044 -5.125 6.9375 C-3.90941898 3.76348289 -2.54364902 2.20449582 0 0 Z " fill="#719AC3" transform="translate(213,200)"/>
<path d="M0 0 C0.33 0 0.66 0 1 0 C1.08160748 1.89510699 1.13946459 3.79124504 1.1875 5.6875 C1.22230469 6.74324219 1.25710938 7.79898438 1.29296875 8.88671875 C0.96163882 12.4076515 0.01560364 14.13520741 -2 17 C-2.66 17.99 -3.32 18.98 -4 20 C-4.99 19.67 -5.98 19.34 -7 19 C-6.34 18.01 -5.68 17.02 -5 16 C-5.99 15.67 -6.98 15.34 -8 15 C-5.35261084 13.5393715 -4.10551666 13 -1 13 C-0.67 8.71 -0.34 4.42 0 0 Z " fill="#FDFBD3" transform="translate(922,67)"/>
<path d="M0 0 C0.4125 0.515625 0.825 1.03125 1.25 1.5625 C2.11625 2.2740625 2.11625 2.2740625 3 3 C5.16299211 2.77242269 5.16299211 2.77242269 7 2 C7 2.99 7 3.98 7 5 C6.34 5 5.68 5 5 5 C5 5.66 5 6.32 5 7 C9.95 7 14.9 7 20 7 C20 7.33 20 7.66 20 8 C17.22754986 8.13487595 14.46162912 8.23400807 11.6875 8.3125 C10.50897461 8.3753418 10.50897461 8.3753418 9.30664062 8.43945312 C7.10123244 8.4863767 5.15650758 8.46950218 3 8 C0.50706326 5.15433416 0 3.77595336 0 0 Z " fill="#6F9BC7" transform="translate(662,230)"/>
<path d="M0 0 C1.79206547 0.14084796 3.58364917 0.28783701 5.375 0.4375 C6.87160156 0.55931641 6.87160156 0.55931641 8.3984375 0.68359375 C11 1 11 1 13 2 C13.042721 3.66611905 13.04063832 5.33382885 13 7 C12 8 12 8 8.62109375 8.09765625 C7.22652923 8.09098369 5.83198257 8.07902532 4.4375 8.0625 C3.37112305 8.05573242 3.37112305 8.05573242 2.28320312 8.04882812 C0.52209987 8.03700864 -1.23896036 8.01907263 -3 8 C-3 7.67 -3 7.34 -3 7 C1.62 7 6.24 7 11 7 C10.67 5.35 10.34 3.7 10 2 C7.03 2 4.06 2 1 2 C0.67 1.34 0.34 0.68 0 0 Z " fill="#7499BD" transform="translate(282,231)"/>
<path d="M0 0 C0 0.66 0 1.32 0 2 C-5.83799592 3.69832609 -10.93107371 4.25287193 -17 4 C-16.67 3.34 -16.34 2.68 -16 2 C-13.671875 1.3671875 -13.671875 1.3671875 -10.75 0.875 C-9.79609375 0.70742187 -8.8421875 0.53984375 -7.859375 0.3671875 C-5.19900755 0.02555561 -2.67794365 -0.06841462 0 0 Z " fill="#FEFCD3" transform="translate(881,105)"/>
<path d="M0 0 C0.99 0 1.98 0 3 0 C1.91103333 5.75762166 0.70663707 11.39247819 -1 17 C-1.33 17 -1.66 17 -2 17 C-2.21824777 10.9981863 -1.5056904 5.80766296 0 0 Z " fill="#7898B9" transform="translate(849,254)"/>
<path d="M0 0 C1.93570602 1.6126085 2.9082485 2.50189464 3.37231445 5.02124023 C3.3693335 5.77606689 3.36635254 6.53089355 3.36328125 7.30859375 C3.36263672 8.13810547 3.36199219 8.96761719 3.36132812 9.82226562 C3.34521484 10.68529297 3.32910156 11.54832031 3.3125 12.4375 C3.31572266 13.29666016 3.31894531 14.15582031 3.32226562 15.04101562 C3.28580431 19.31361911 3.15252384 22.22143426 1 26 C0.34 26 -0.32 26 -1 26 C-0.67 24.741875 -0.34 23.48375 0 22.1875 C1.63106122 14.85350843 1.58877271 7.34807377 0 0 Z " fill="#709AC4" transform="translate(68,195)"/>
<path d="M0 0 C4.29238623 1.65091778 6.8793915 4.73754566 10 8 C9.67 8.66 9.34 9.32 9 10 C6.36 9.01 3.72 8.02 1 7 C0.67 4.69 0.34 2.38 0 0 Z " fill="#6E9AC8" transform="translate(561,93)"/>
<path d="M0 0 C1 2 1 2 0.90625 3.83203125 C-0.44966538 7.07570813 -2.752858 8.54572048 -5.5 10.6875 C-6.5003125 11.47511719 -7.500625 12.26273438 -8.53125 13.07421875 C-9.3459375 13.70972656 -10.160625 14.34523437 -11 15 C-11.33 15.33 -11.66 15.66 -12 16 C-13.66617115 16.04063832 -15.33388095 16.042721 -17 16 C-16.01 15.34 -15.02 14.68 -14 14 C-8.11388377 10.0591887 -3.94710576 5.89075632 0 0 Z " fill="#739AC1" transform="translate(789,217)"/>
<path d="M0 0 C4.36534836 1.2979808 7.92104178 2.97829341 11.75 5.4375 C12.69359375 6.03433594 13.6371875 6.63117188 14.609375 7.24609375 C17 9 17 9 19 12 C15.03132589 10.05657711 11.14583435 7.95916091 7.25 5.875 C6.55261719 5.50246094 5.85523438 5.12992188 5.13671875 4.74609375 C3.42422705 3.83120092 1.71207932 2.91566431 0 2 C0 1.34 0 0.68 0 0 Z " fill="#7399C2" transform="translate(55,143)"/>
<path d="M0 0 C2.16099373 2.16099373 2.71563716 3.5210418 3.6875 6.375 C3.95949219 7.14585937 4.23148438 7.91671875 4.51171875 8.7109375 C5.04278009 11.20055308 4.81115526 12.61553018 4 15 C4 14.01 4 13.02 4 12 C3.34 12 2.68 12 2 12 C2 10.68 2 9.36 2 8 C0.35 8.33 -1.3 8.66 -3 9 C-2.67 7.68 -2.34 6.36 -2 5 C-1.34 5 -0.68 5 0 5 C0 3.35 0 1.7 0 0 Z " fill="#6C9BC8" transform="translate(820,123)"/>
<path d="M0 0 C1.67542976 0.28604898 3.34385343 0.61781233 5 1 C5.33 2.32 5.66 3.64 6 5 C6.66 4.67 7.32 4.34 8 4 C7.34 5.65 6.68 7.3 6 9 C4.68 8.67 3.36 8.34 2 8 C2 6.02 2 4.04 2 2 C1.01 1.67 0.02 1.34 -1 1 C-0.67 0.67 -0.34 0.34 0 0 Z " fill="#83A4C6" transform="translate(802,260)"/>
<path d="M0 0 C0.33 0.66 0.66 1.32 1 2 C1.99 2.33 2.98 2.66 4 3 C3.01 5.97 2.02 8.94 1 12 C0.01 12 -0.98 12 -2 12 C-1.34 8.04 -0.68 4.08 0 0 Z " fill="#7499C0" transform="translate(767,266)"/>
<path d="M0 0 C1.8871875 0.0309375 1.8871875 0.0309375 3.8125 0.0625 C3.4825 1.0525 3.1525 2.0425 2.8125 3.0625 C2.8125 2.4025 2.8125 1.7425 2.8125 1.0625 C-3.20667426 1.84276362 -3.20667426 1.84276362 -8.125 5 C-8.475625 5.680625 -8.82625 6.36125 -9.1875 7.0625 C-10.1775 8.5475 -10.1775 8.5475 -11.1875 10.0625 C-11.8475 10.0625 -12.5075 10.0625 -13.1875 10.0625 C-11.87704637 6.13113911 -10.35541954 3.75043173 -7.1875 1.0625 C-4.43671116 0.14557039 -2.82801087 -0.04636083 0 0 Z " fill="#7798B9" transform="translate(735.1875,259.9375)"/>
<path d="M0 0 C3 1 3 1 4 2 C3.78633888 6.70054457 3.03548394 11.41428541 2 16 C1.67 16 1.34 16 1 16 C1 12.04 1 8.08 1 4 C0.01 4.33 -0.98 4.66 -2 5 C-1.125 1.125 -1.125 1.125 0 0 Z " fill="#E7F5F6" transform="translate(745,260)"/>
<path d="M0 0 C1.98 0 3.96 0 6 0 C4.02 0.99 4.02 0.99 2 2 C7.94 4.475 7.94 4.475 14 7 C10.67803635 8.10732122 9.31749961 7.85064093 6 7 C5.34 6.67 4.68 6.34 4 6 C2.67139075 5.64830932 1.33841672 5.31229724 0 5 C0 3.35 0 1.7 0 0 Z " fill="#709AC3" transform="translate(652,160)"/>
<path d="M0 0 C0.825 0.680625 1.65 1.36125 2.5 2.0625 C4.73632248 4.20419056 4.73632248 4.20419056 7 4 C7.66 5.32 8.32 6.64 9 8 C5.34061828 6.56835889 1.76011932 5.01065704 -1.8125 3.375 C-2.78832031 2.92898437 -3.76414062 2.48296875 -4.76953125 2.0234375 C-5.50558594 1.68570313 -6.24164062 1.34796875 -7 1 C-7 0.67 -7 0.34 -7 0 C-2.25 -1.125 -2.25 -1.125 0 0 Z " fill="#EDFEFE" transform="translate(660,161)"/>
<path d="M0 0 C1.14926266 0.95421808 2.29430541 1.91352045 3.4375 2.875 C4.39462891 3.67550781 4.39462891 3.67550781 5.37109375 4.4921875 C7 6 7 6 8 8 C6.35 7.67 4.7 7.34 3 7 C3 7.66 3 8.32 3 9 C1 8 1 8 0 6 C-2.02463255 5.34786708 -2.02463255 5.34786708 -4 5 C-2.68 4.67 -1.36 4.34 0 4 C0 2.68 0 1.36 0 0 Z " fill="#6C9AC8" transform="translate(748,222)"/>
<path d="M0 0 C6.06738846 -0.39569925 11.34403994 0.74588795 17 3 C17.66 3.66 18.32 4.32 19 5 C11.125 4.125 11.125 4.125 10 3 C7.32941149 2.85884839 4.67567762 2.95752893 2 3 C2 2.34 2 1.68 2 1 C1.34 0.67 0.68 0.34 0 0 Z " fill="#709AC2" transform="translate(540,87)"/>
<path d="M0 0 C1.65 0 3.3 0 5 0 C4.8125 1.8125 4.8125 1.8125 4 4 C-0.17857143 7 -0.17857143 7 -3 7 C-3 6.01 -3 5.02 -3 4 C-2.34 4 -1.68 4 -1 4 C-0.67 2.68 -0.34 1.36 0 0 Z " fill="#F5EA28" transform="translate(907,86)"/>
<path d="M0 0 C0.66 0.33 1.32 0.66 2 1 C2 1.66 2 2.32 2 3 C1.01 3 0.02 3 -1 3 C-1.12375 3.5775 -1.2475 4.155 -1.375 4.75 C-2.00648824 7.02335767 -2.88858191 8.9253529 -4 11 C-4.66 11 -5.32 11 -6 11 C-6.375 8.875 -6.375 8.875 -6 6 C-4.20659643 3.76086748 -2.16547337 1.87545461 0 0 Z " fill="#BFD1DE" transform="translate(476,252)"/>
<path d="M0 0 C0.66 0 1.32 0 2 0 C2 2.31 2 4.62 2 7 C2.99 7 3.98 7 5 7 C5 9.31 5 11.62 5 14 C4.01 14 3.02 14 2 14 C1.34 9.38 0.68 4.76 0 0 Z " fill="#709BC3" transform="translate(301,174)"/>
<path d="M0 0 C6.6 0 13.2 0 20 0 C20 0.33 20 0.66 20 1 C17.36 1 14.72 1 12 1 C12 1.66 12 2.32 12 3 C7.18550592 2.51855059 4.39828259 2.1991413 0 0 Z " fill="#FEFDD6" transform="translate(892,50)"/>
<path d="M0 0 C1.134375 0.020625 2.26875 0.04125 3.4375 0.0625 C3.4375 0.3925 3.4375 0.7225 3.4375 1.0625 C2.2309375 1.248125 2.2309375 1.248125 1 1.4375 C0.154375 1.64375 -0.69125 1.85 -1.5625 2.0625 C-1.8925 2.7225 -2.2225 3.3825 -2.5625 4.0625 C2.3875 4.0625 7.3375 4.0625 12.4375 4.0625 C12.4375 4.3925 12.4375 4.7225 12.4375 5.0625 C7.1575 5.0625 1.8775 5.0625 -3.5625 5.0625 C-3.8925 3.7425 -4.2225 2.4225 -4.5625 1.0625 C-3.5625 0.0625 -3.5625 0.0625 0 0 Z " fill="#7699BC" transform="translate(377.5625,233.9375)"/>
<path d="M0 0 C2.98479194 4.47718792 4 8.63824093 4 14 C3.34 14 2.68 14 2 14 C2 12.35 2 10.7 2 9 C1.01 9 0.02 9 -1 9 C-0.67 6.03 -0.34 3.06 0 0 Z " fill="#729AC7" transform="translate(217,128)"/>
<path d="M0 0 C3.58806317 3.38872633 6.45684799 6.76141332 9 11 C9 11.66 9 12.32 9 13 C8.01 13.33 7.02 13.66 6 14 C5.731875 12.865625 5.46375 11.73125 5.1875 10.5625 C4.5996875 8.7990625 4.5996875 8.7990625 4 7 C3.01 6.67 2.02 6.34 1 6 C0.67 4.02 0.34 2.04 0 0 Z " fill="#7299C5" transform="translate(203,104)"/>
<path d="M0 0 C-0.99 0.33 -1.98 0.66 -3 1 C-2.34 1.33 -1.68 1.66 -1 2 C-1.66 3.32 -2.32 4.64 -3 6 C-3.33 5.34 -3.66 4.68 -4 4 C-6.31 4 -8.62 4 -11 4 C-11 3.67 -11 3.34 -11 3 C-9.02 3 -7.04 3 -5 3 C-5 2.34 -5 1.68 -5 1 C-6.98 1 -8.96 1 -11 1 C-11 0.67 -11 0.34 -11 0 C-3.57142857 -1.28571429 -3.57142857 -1.28571429 0 0 Z " fill="#F6F184" transform="translate(918,81)"/>
<path d="M0 0 C6.98295186 1.5457408 10.97221053 2.95831579 15 9 C13.35 8.67 11.7 8.34 10 8 C9.67 7.01 9.34 6.02 9 5 C7.35 4.67 5.7 4.34 4 4 C4 3.34 4 2.68 4 2 C2.68 2 1.36 2 0 2 C0 1.34 0 0.68 0 0 Z " fill="#FDF9BE" transform="translate(928,55)"/>
<path d="M0 0 C0.66 1.32 1.32 2.64 2 4 C1.4225 3.67 0.845 3.34 0.25 3 C-2.19883862 1.72924102 -2.19883862 1.72924102 -6 2 C-7.37310707 3.29233607 -8.71034824 4.62437146 -10 6 C-10.66 6 -11.32 6 -12 6 C-11.66411682 3.48087612 -11.42645046 2.32803881 -9.375 0.75 C-6.1989627 -0.25295915 -3.30771122 -0.12721966 0 0 Z " fill="#DDECF1" transform="translate(529,259)"/>
<path d="M0 0 C3.63 0.33 7.26 0.66 11 1 C11 1.99 11 2.98 11 4 C7.37 3.67 3.74 3.34 0 3 C0 2.01 0 1.02 0 0 Z " fill="#659ED4" transform="translate(632,234)"/>
<path d="M0 0 C1.45839897 3.95705456 0.67906093 7.69831388 0.0625 11.75 C-0.03740234 12.44738281 -0.13730469 13.14476562 -0.24023438 13.86328125 C-0.48665873 15.57651726 -0.74240955 17.28840725 -1 19 C-2.61328125 18.01171875 -2.61328125 18.01171875 -4 16 C-3.55716975 13.11417334 -3.00044459 10.59107179 -2.1875 7.8125 C-1.98318359 7.06291016 -1.77886719 6.31332031 -1.56835938 5.54101562 C-1.06129281 3.68963305 -0.53266865 1.8441795 0 0 Z " fill="#EEFAFB" transform="translate(848,253)"/>
<path d="M0 0 C4.29238623 1.65091778 6.8793915 4.73754566 10 8 C9.67 8.66 9.34 9.32 9 10 C7.02 9.01 5.04 8.02 3 7 C3.33 6.01 3.66 5.02 4 4 C2.68 3.34 1.36 2.68 0 2 C0 1.34 0 0.68 0 0 Z " fill="#729AC3" transform="translate(672,93)"/>
<path d="M0 0 C4.72065967 1.54269924 9.41664092 3.07794619 14 5 C10.25 7 10.25 7 8 7 C8 6.34 8 5.68 8 5 C7.01 5 6.02 5 5 5 C5 4.34 5 3.68 5 3 C3.35 2.67 1.7 2.34 0 2 C0 1.34 0 0.68 0 0 Z " fill="#7199C5" transform="translate(41,137)"/>
<path d="M0 0 C0 2.62113708 -0.31292445 4.50935112 -1 7 C-0.34 7 0.32 7 1 7 C1.33 9.31 1.66 11.62 2 14 C1.01 13.67 0.02 13.34 -1 13 C-2.17673198 10.64653604 -2.16623866 9.1193967 -2.1875 6.5 C-2.20167969 5.7059375 -2.21585938 4.911875 -2.23046875 4.09375 C-2 2 -2 2 0 0 Z " fill="#FDF7BA" transform="translate(838,63)"/>
<path d="M0 0 C0.33 0.99 0.66 1.98 1 3 C3.31 3 5.62 3 8 3 C4.49461443 4.96301592 0.86648272 5.95902388 -3 7 C-3 6.34 -3 5.68 -3 5 C-2.34 5 -1.68 5 -1 5 C-0.67 3.35 -0.34 1.7 0 0 Z " fill="#F6EA3A" transform="translate(853,48)"/>
<path d="M0 0 C2.83374881 3.20336822 3.5205537 5.78087253 4 10 C3.34 8.68 2.68 7.36 2 6 C0.68 6.33 -0.64 6.66 -2 7 C-2.33 6.01 -2.66 5.02 -3 4 C-1.5625 1.8125 -1.5625 1.8125 0 0 Z " fill="#6D9AC9" transform="translate(675,178)"/>
<path d="M0 0 C-1.423125 0.680625 -1.423125 0.680625 -2.875 1.375 C-6.00313679 2.80238254 -6.00313679 2.80238254 -8 5 C-9.98821313 5.39764263 -11.98944339 5.73775349 -14 6 C-10.33829808 1.75242578 -5.68114185 -1.89371395 0 0 Z " fill="#7198C3" transform="translate(148,90)"/>
<path d="M0 0 C2 1.3125 2 1.3125 4 4 C4.66928526 9.19863438 4.95300832 13.57048752 2 18 C2.33 14.04 2.66 10.08 3 6 C2.34 6 1.68 6 1 6 C0.67 4.02 0.34 2.04 0 0 Z " fill="#F4EC5C" transform="translate(918,62)"/>
<path d="M0 0 C1.23556641 0.01740234 1.23556641 0.01740234 2.49609375 0.03515625 C3.32238281 0.04417969 4.14867187 0.05320313 5 0.0625 C5.63808594 0.07410156 6.27617188 0.08570313 6.93359375 0.09765625 C4.93359375 3.09765625 4.93359375 3.09765625 1.80859375 3.78515625 C0.85984375 3.88828125 -0.08890625 3.99140625 -1.06640625 4.09765625 C-1.06640625 3.43765625 -1.06640625 2.77765625 -1.06640625 2.09765625 C-1.72640625 1.76765625 -2.38640625 1.43765625 -3.06640625 1.09765625 C-2.06640625 0.09765625 -2.06640625 0.09765625 0 0 Z " fill="#FEFDE2" transform="translate(867.06640625,50.90234375)"/>
<path d="M0 0 C0.99 0 1.98 0 3 0 C3.33 0.66 3.66 1.32 4 2 C5.32 2 6.64 2 8 2 C7.67 3.32 7.34 4.64 7 6 C7 5.01 7 4.02 7 3 C4.36 3.99 1.72 4.98 -1 6 C-0.67 4.02 -0.34 2.04 0 0 Z " fill="#DFEDF1" transform="translate(796,260)"/>
<path d="M0 0 C1.65 0 3.3 0 5 0 C5 0.66 5 1.32 5 2 C5.598125 2.103125 6.19625 2.20625 6.8125 2.3125 C9.28243264 3.08876455 10.32251235 4.07088921 12 6 C7.24518354 5.42365861 4.02951788 3.44931479 0 1 C0 0.67 0 0.34 0 0 Z " fill="#719AC3" transform="translate(20,231)"/>
<path d="M0 0 C4.79022833 0.4354753 8.62460714 2.63368078 12 6 C12.703125 8.16796875 12.703125 8.16796875 13 10 C12.56429687 9.60167969 12.12859375 9.20335938 11.6796875 8.79296875 C7.99005314 5.51063169 4.56922802 3.00600254 0 1 C0 0.67 0 0.34 0 0 Z " fill="#EEFEFF" transform="translate(668,90)"/>
<path d="M0 0 C-0.61875 0.0825 -1.2375 0.165 -1.875 0.25 C-2.57625 0.4975 -3.2775 0.745 -4 1 C-4.28875 1.639375 -4.5775 2.27875 -4.875 2.9375 C-6 5 -6 5 -9.125 6.25 C-10.07375 6.4975 -11.0225 6.745 -12 7 C-11.34 6.01 -10.68 5.02 -10 4 C-9.34 4 -8.68 4 -8 4 C-8 3.34 -8 2.68 -8 2 C-7.34 2 -6.68 2 -6 2 C-6 1.34 -6 0.68 -6 0 C-2.25 -1.125 -2.25 -1.125 0 0 Z " fill="#FDF6B4" transform="translate(940,87)"/>
<path d="M0 0 C-1.43570266 0.81567174 -2.87363434 1.62742093 -4.3125 2.4375 C-5.51326172 3.11619141 -5.51326172 3.11619141 -6.73828125 3.80859375 C-9 5 -9 5 -12 6 C-12 5.34 -12 4.68 -12 4 C-10.390625 2.67578125 -10.390625 2.67578125 -8.25 1.3125 C-7.55390625 0.85488281 -6.8578125 0.39726563 -6.140625 -0.07421875 C-3.60909275 -1.16906025 -2.53899138 -0.9435441 0 0 Z " fill="#F4EC57" transform="translate(872,55)"/>
<path d="M0 0 C1.45047396 2.90094791 0.45356803 4.55972596 -0.4375 7.625 C-0.86869141 9.12933594 -0.86869141 9.12933594 -1.30859375 10.6640625 C-1.53675781 11.43492187 -1.76492188 12.20578125 -2 13 C-4 10 -4 10 -3.8125 7.0625 C-3.00070842 4.0026702 -2.07524374 2.34592771 0 0 Z " fill="#7E9CBA" transform="translate(499,256)"/>
<path d="M0 0 C1.485 0.99 1.485 0.99 3 2 C3.66 1.34 4.32 0.68 5 0 C5 3.63 5 7.26 5 11 C0 4.33333333 0 4.33333333 0 0 Z " fill="#719AC3" transform="translate(713,200)"/>
<path d="M0 0 C0.33 0.99 0.66 1.98 1 3 C1.66 3 2.32 3 3 3 C3 4.65 3 6.3 3 8 C1.68 7.67 0.36 7.34 -1 7 C-1.04254356 5.00045254 -1.04080783 2.99958364 -1 1 C-0.67 0.67 -0.34 0.34 0 0 Z " fill="#699CD5" transform="translate(78,116)"/>
<path d="M0 0 C10.5 1.5 10.5 1.5 14 5 C8.94744036 4.36843005 4.70406799 2.86540627 0 1 C0 0.67 0 0.34 0 0 Z " fill="#FDF8BD" transform="translate(842,79)"/>
<path d="M0 0 C0.5775 0.226875 1.155 0.45375 1.75 0.6875 C0.75 2.6875 0.75 2.6875 -2.125 3.6875 C-3.15625 4.0175 -4.1875 4.3475 -5.25 4.6875 C-6.24 5.3475 -7.23 6.0075 -8.25 6.6875 C-6.65594781 2.8352072 -4.57967475 -0.63606594 0 0 Z " fill="#7999B7" transform="translate(761.25,260.3125)"/>
<path d="M0 0 C0.5775 0.226875 1.155 0.45375 1.75 0.6875 C0.75 2.6875 0.75 2.6875 -2.125 3.6875 C-3.15625 4.0175 -4.1875 4.3475 -5.25 4.6875 C-6.24 5.3475 -7.23 6.0075 -8.25 6.6875 C-6.65594781 2.8352072 -4.57967475 -0.63606594 0 0 Z " fill="#7B98B6" transform="translate(579.25,260.3125)"/>
<path d="M0 0 C0.144375 0.61875 0.28875 1.2375 0.4375 1.875 C0.93152225 4.03258322 0.93152225 4.03258322 2 6 C-2.75 10.875 -2.75 10.875 -5 12 C-3.41037341 7.96479403 -1.71767682 3.98188718 0 0 Z " fill="#6E9AC3" transform="translate(188,208)"/>
<path d="M0 0 C4.53491883 2.26745942 5.24877749 3.39151972 7 8 C6.67 9.32 6.34 10.64 6 12 C4.02 8.04 2.04 4.08 0 0 Z " fill="#7299C2" transform="translate(452,107)"/>
<path d="M0 0 C0.33 0.66 0.66 1.32 1 2 C5.7897321 2.23428313 5.7897321 2.23428313 10 0 C9.34 1.32 8.68 2.64 8 4 C1.9453125 4.1953125 1.9453125 4.1953125 0 4 C-0.66 3.34 -1.32 2.68 -2 2 C-1.34 1.34 -0.68 0.68 0 0 Z " fill="#8EA5BB" transform="translate(467,274)"/>
<path d="M0 0 C2.91517292 1.07401108 4.77810176 1.77810176 7 4 C7.125 6.625 7.125 6.625 7 9 C4.61327331 6.03716687 2.2646629 3.05729491 0 0 Z " fill="#739AC0" transform="translate(61,185)"/>
<path d="M0 0 C0.33 0 0.66 0 1 0 C1.375 2.25 1.375 2.25 1 5 C-2 7.3125 -2 7.3125 -5 9 C-3.75471468 5.55151758 -2.38532951 2.80016942 0 0 Z " fill="#719AC1" transform="translate(724,110)"/>
<path d="M0 0 C0.66 0.33 1.32 0.66 2 1 C0.9375 2.9375 0.9375 2.9375 -1 5 C-4.6875 5.75 -4.6875 5.75 -8 6 C-5.63404067 3.38499232 -3.13950774 1.61000397 0 0 Z " fill="#FCF7B3" transform="translate(909,90)"/>
<path d="M0 0 C0.33 0 0.66 0 1 0 C1 2.31 1 4.62 1 7 C-0.65 7.33 -2.3 7.66 -4 8 C-4.33 7.01 -4.66 6.02 -5 5 C-3.35 5 -1.7 5 0 5 C0 3.35 0 1.7 0 0 Z " fill="#7599BE" transform="translate(81,119)"/>
<path d="M0 0 C0.33 0 0.66 0 1 0 C1.125 2.875 1.125 2.875 1 6 C0.34 6.66 -0.32 7.32 -1 8 C-1.66 7.67 -2.32 7.34 -3 7 C-2.38722388 4.03824877 -1.74627478 2.61941217 0 0 Z " fill="#EDF7FA" transform="translate(702,269)"/>
<path d="M0 0 C2.35953094 2.35953094 2.49141413 3.77895617 3 7 C2.01 6.67 1.02 6.34 0 6 C-0.66 6.66 -1.32 7.32 -2 8 C-2.33 7.01 -2.66 6.02 -3 5 C-1.5625 2.3125 -1.5625 2.3125 0 0 Z " fill="#6E9BC8" transform="translate(14,201)"/>
<path d="M0 0 C4 2 4 2 6 5 C6 5.99 6 6.98 6 8 C5.34 8.66 4.68 9.32 4 10 C2.68 6.7 1.36 3.4 0 0 Z " fill="#7198C5" transform="translate(649,173)"/>
<path d="M0 0 C0.33 0 0.66 0 1 0 C1.25 3.3125 1.25 3.3125 1 7 C-1 8.9375 -1 8.9375 -3 10 C-3.66 9.67 -4.32 9.34 -5 9 C-4.360625 8.071875 -3.72125 7.14375 -3.0625 6.1875 C-0.91377907 3.15780057 -0.91377907 3.15780057 0 0 Z " fill="#739AC2" transform="translate(301,141)"/>
<path d="M0 0 C1.258125 0.12375 2.51625 0.2475 3.8125 0.375 C4.87404297 0.47941406 4.87404297 0.47941406 5.95703125 0.5859375 C8 1 8 1 11 3 C8.03 3 5.06 3 2 3 C2 2.34 2 1.68 2 1 C1.34 0.67 0.68 0.34 0 0 Z " fill="#F4EA49" transform="translate(853,84)"/>
<path d="M0 0 C1.485 0.99 1.485 0.99 3 2 C3 2.66 3 3.32 3 4 C4.32 3.67 5.64 3.34 7 3 C5.75 4.5625 5.75 4.5625 4 6 C1.8125 5.6875 1.8125 5.6875 0 5 C0 3.35 0 1.7 0 0 Z " fill="#7998B8" transform="translate(777,272)"/>
<path d="M0 0 C0.66 1.32 1.32 2.64 2 4 C0.35 5.65 -1.3 7.3 -3 9 C-3.66 8.67 -4.32 8.34 -5 8 C-4.360625 7.236875 -3.72125 6.47375 -3.0625 5.6875 C-0.85767219 3.11753287 -0.85767219 3.11753287 0 0 Z " fill="#7D97B4" transform="translate(663,268)"/>
<path d="M0 0 C2.64 0.33 5.28 0.66 8 1 C7.67 1.66 7.34 2.32 7 3 C4.69 2.67 2.38 2.34 0 2 C0 1.34 0 0.68 0 0 Z " fill="#F9FCF6" transform="translate(908,52)"/>
</svg>
